# Blender v2.80 (sub 75) OBJ File: 'Rock1.blend'
# www.blender.org
mtllib lowPoly.mtl
o lowPoly_highPoly
v -0.277370 4.190929 0.565863
v 0.179129 4.222178 0.561246
v -0.174878 4.350936 0.391337
v 0.078667 4.352412 -0.062327
v -0.139461 4.351626 -0.153293
v -0.943744 0.539753 0.588332
v -0.891300 0.277647 0.445003
v -0.890149 0.352846 0.603794
v -0.103271 4.074493 -0.594857
v -0.449573 3.875939 -0.579950
v -0.138291 4.143867 -0.564534
v 0.441418 4.299659 0.155752
v 0.583091 4.172745 0.126962
v 0.556751 4.076398 -0.189248
v 0.560791 4.111795 0.405013
v 0.614103 3.878200 0.543490
v 0.920144 0.771432 -0.812380
v 0.832876 1.664220 0.719991
v 0.978537 0.187842 -0.351958
v 0.782710 1.018904 -0.896430
v 0.865673 0.468029 -0.949639
v 0.688657 0.347012 -0.955016
v -0.421337 0.688542 -0.920989
v -0.785021 1.149489 -0.883683
v -0.126566 0.492569 -0.948482
v -0.799652 0.683073 0.928318
v -0.433351 0.421459 0.911178
v -0.033854 0.401906 0.957424
v 0.881175 0.328885 -0.842997
v 0.625920 3.757210 -0.547998
v 0.574538 3.890165 -0.567423
v 0.607929 3.943179 -0.258921
v 0.959624 0.309045 -0.693898
v 0.952970 0.444189 -0.852111
v -0.587370 3.833525 0.579951
v -0.348588 4.225038 0.504334
v -0.570676 4.096226 0.389884
v 0.929629 0.138654 -0.497485
v 0.950665 0.075595 -0.107657
v 0.647569 2.203432 -0.779533
v 0.757710 1.862363 -0.780801
v 0.754639 1.452059 -0.851492
v 0.859652 1.389670 -0.732107
v 0.768405 -0.029128 -0.037920
v 0.741039 -0.027252 0.161300
v 0.480819 0.301871 -0.967260
v 0.165292 4.156072 0.586627
v 0.717872 1.905797 0.808739
v 0.776940 2.229995 0.616121
v 0.633745 2.464570 0.752245
v -0.268382 4.310994 -0.060217
v -0.780658 1.031274 0.895350
v 0.586221 2.810523 0.719664
v -0.593356 2.595172 0.740975
v -0.713355 1.955309 0.802080
v -0.872289 0.527728 0.816708
v -0.763836 0.300901 0.695728
v 0.404877 4.341231 0.285344
v 0.107432 0.317865 -0.963714
v -0.891270 1.053492 0.744323
v -0.764514 1.419075 0.856397
v -0.832426 1.668581 0.720175
v -0.954414 0.395961 0.231027
v -0.853478 0.253339 0.141052
v -0.513191 3.646143 -0.636600
v -0.588600 3.716994 -0.596531
v 0.764667 2.354639 -0.669172
v 0.760450 2.375328 -0.676227
v 0.913307 0.417325 0.885543
v 0.976831 0.204338 0.414965
v 0.935411 0.574321 0.812049
v 0.709222 2.902326 0.600284
v 0.544781 3.903170 0.600631
v -0.676204 2.445581 0.712049
v -0.593858 2.786370 -0.721877
v 0.546839 3.119477 -0.689104
v 0.614060 2.496421 -0.750673
v -0.333707 0.075489 -0.236904
v -0.629785 0.050784 0.239922
v -0.924168 0.681331 0.784030
v 0.780607 0.585640 0.938302
v 0.731271 0.361810 0.960639
v -0.870017 0.874044 -0.796760
v -0.896867 1.000242 -0.820854
v -0.723804 0.814832 -0.887199
v -0.789135 0.999020 -0.898667
v -0.802414 0.739436 -0.781559
v -0.905787 0.507506 -0.101092
v -0.432698 0.547568 -0.881007
v -0.579539 0.568644 -0.803148
v 0.784710 0.990063 0.899395
v 0.756533 1.439882 0.854507
v 0.947331 0.119162 0.444181
v 0.763632 0.023943 0.532808
v -0.939066 0.584377 -0.052095
v -0.652695 0.090623 0.370749
v 0.876323 1.219321 0.742304
v -0.356559 -0.030467 0.314231
v -0.560139 4.065341 -0.215437
v -0.556796 3.234794 0.677196
v 0.521688 3.508239 0.650713
v 0.664210 3.365705 0.541872
v 0.715351 2.854032 -0.625720
v 0.670053 3.309402 -0.575013
v -0.526880 3.783394 0.623565
v 0.181408 4.058118 -0.596555
v 0.196378 4.127695 -0.548219
v -0.549057 4.126004 -0.005806
v -0.599815 4.025336 0.362101
v -0.633239 3.685916 0.529265
v 0.238632 4.347268 0.413230
v -0.637055 3.645866 -0.535320
v -0.600973 4.011189 -0.169604
v 0.724020 0.257601 0.912606
v -0.151238 0.430947 -0.945912
v -0.857942 1.404742 -0.732422
v -0.015620 0.299257 0.912296
v 0.857426 1.040780 -0.836276
v -0.748240 2.521330 -0.653528
v -0.634043 2.330649 -0.766586
v -0.788797 2.104605 -0.699100
v 0.559857 3.792370 -0.622480
v -0.332415 0.194145 0.714191
v -0.717829 1.651182 -0.832178
v 0.860902 0.496460 0.945746
v -0.765520 2.342611 0.613757
v -0.682257 3.190219 -0.576615
v 0.801241 1.978456 -0.692120
v -0.783108 1.545536 -0.801261
v -0.687543 3.129034 0.570408
v -0.538497 3.283107 -0.672848
v 0.443783 0.171321 -0.850859
v 0.665716 -0.006759 -0.413687
v 0.335179 -0.012104 -0.549788
v -0.248448 0.019731 0.459762
v 0.419007 0.035088 0.564710
v 0.554744 -0.028773 0.480704
v 0.651499 -0.025338 0.514714
v 0.218066 -0.029206 0.416481
v 0.035584 4.315204 -0.346936
v -0.160237 -0.027628 -0.139023
v -0.400357 -0.001184 0.046110
v 0.273355 0.267002 -0.951421
v -0.136458 0.258436 -0.843854
v 0.055084 -0.028392 -0.436317
v 0.670900 -0.028561 -0.345960
v -0.359915 4.203005 -0.240140
v -0.105055 4.282876 -0.373201
v -0.112680 0.339360 -0.934924
v -0.197593 -0.004154 -0.237925
v 0.476246 0.257860 -0.956945
v -0.048821 0.003452 -0.476975
vt 0.273568 0.680967
vt 0.322289 0.712763
vt 0.265680 0.711789
vt 0.240695 0.790551
vt 0.200751 0.768679
vt 0.231676 0.182356
vt 0.225127 0.150563
vt 0.238684 0.162931
vt 0.800553 0.741045
vt 0.866156 0.746024
vt 0.798715 0.753501
vt 0.643418 0.767298
vt 0.636786 0.735860
vt 0.682409 0.711058
vt 0.588043 0.740297
vt 0.552793 0.703087
vt 0.758867 0.224085
vt 0.521842 0.309306
vt 0.734312 0.157770
vt 0.775219 0.253509
vt 0.774566 0.198463
vt 0.789130 0.189346
vt 0.928937 0.214423
vt 0.999873 0.276942
vt 0.880784 0.194443
vt 0.268608 0.196007
vt 0.297214 0.161796
vt 0.345788 0.148240
vt 0.770967 0.185411
vt 0.724843 0.656507
vt 0.729313 0.674535
vt 0.687356 0.687098
vt 0.758283 0.180010
vt 0.765430 0.194750
vt 0.253224 0.630576
vt 0.262018 0.682586
vt 0.235677 0.665294
vt 0.750393 0.159668
vt 0.718849 0.132274
vt 0.775571 0.414167
vt 0.763854 0.363237
vt 0.771629 0.306759
vt 0.751079 0.297973
vt 0.728668 0.106896
vt 0.709630 0.088019
vt 0.807538 0.183899
vt 0.325048 0.702694
vt 0.497296 0.364576
vt 0.521589 0.423158
vt 0.479605 0.457401
vt 0.203039 0.738886
vt 0.271070 0.231642
vt 0.464092 0.515866
vt 0.274809 0.455443
vt 0.270127 0.358497
vt 0.256005 0.182543
vt 0.253900 0.155934
vt 0.625106 0.785583
vt 0.847507 0.178567
vt 0.250476 0.235378
vt 0.272404 0.281089
vt 0.250475 0.316192
vt 0.197554 0.156806
vt 0.193230 0.131673
vt 0.067150 0.656004
vt 0.084962 0.658220
vt 0.088037 0.692111
vt 0.749907 0.442310
vt 0.753154 0.444134
vt 0.576042 0.104196
vt 0.654622 0.111038
vt 0.574770 0.133278
vt 0.489726 0.539955
vt 0.395582 0.697025
vt 0.411241 0.702936
vt 0.384379 0.748091
vt 0.263289 0.432159
vt 0.973738 0.567966
vt 0.757531 0.566680
vt 0.769550 0.469135
vt 0.170302 0.026830
vt 0.223063 0.103064
vt 0.251445 0.197015
vt 0.470851 0.144823
vt 0.450711 0.113284
vt 0.033776 0.179877
vt 0.025419 0.197961
vt 0.012734 0.157211
vt 0.980963 0.225279
vt 0.996260 0.252874
vt 0.039898 0.156579
vt 0.151234 0.157576
vt 0.927189 0.190883
vt 0.035453 0.107295
vt 0.486003 0.212085
vt 0.494682 0.288646
vt 0.657227 0.097899
vt 0.657495 0.061526
vt 0.155858 0.170906
vt 0.234784 0.115942
vt 0.540599 0.241516
vt 0.254480 0.077098
vt 0.156852 0.690697
vt 0.269261 0.549942
vt 0.421297 0.634090
vt 0.897882 0.715073
vt 0.460433 0.623186
vt 0.736916 0.520343
vt 0.727972 0.592617
vt 0.540079 0.608266
vt 0.263195 0.625337
vt 0.767672 0.717140
vt 0.759351 0.726166
vt 0.189533 0.687775
vt 0.229828 0.657130
vt 0.244763 0.611559
vt 0.314895 0.742248
vt 0.091472 0.642589
vt 0.160803 0.678718
vt 0.530202 0.525052
vt 0.532811 0.402569
vt 0.444805 0.096805
vt 0.485511 0.107482
vt 0.005928 0.191773
vt 0.882433 0.185639
vt 0.028695 0.262706
vt 0.002656 0.218201
vt 0.344020 0.132440
vt 0.763742 0.255342
vt 0.953247 0.184672
vt 0.037116 0.456257
vt 0.003633 0.427008
vt 0.028536 0.383867
vt 0.737859 0.662364
vt 0.292700 0.125183
vt 0.999873 0.364688
vt 0.999501 0.480761
vt 0.477035 0.125667
vt 0.505691 0.134646
vt 0.520637 0.249069
vt 0.521589 0.326160
vt 0.243357 0.416554
vt 0.018418 0.508689
vt 0.062600 0.571761
vt 0.750184 0.379805
vt 0.011826 0.286727
vt 0.000127 0.305555
vt 0.245315 0.533806
vt 0.039023 0.597709
vt 0.933494 0.658212
vt 0.806888 0.166639
vt 0.766604 0.134030
vt 0.805059 0.128809
vt 0.280637 0.084787
vt 0.380462 0.043339
vt 0.686097 0.036360
vt 0.672085 0.046192
vt 0.337837 0.035729
vt 0.396194 0.017154
vt 0.751369 0.772242
vt 0.210365 0.003925
vt 0.214940 0.059426
vt 0.827622 0.176147
vt 0.876510 0.157782
vt 0.831549 0.099944
vt 0.848230 0.041170
vt 0.762168 0.127738
vt 0.890984 0.052069
vt 0.164740 0.730239
vt 0.773093 0.780985
vt 0.753297 0.817777
vt 0.710630 0.798835
vt 0.874840 0.174734
vt 0.861047 0.055976
vt 0.438795 0.020079
vt 0.732437 0.000127
vt 0.415643 0.016107
vt 0.331953 0.773937
vt 0.809917 0.820884
vt 0.807314 0.179602
vt 0.188992 0.000127
vt 0.847753 0.100574
vn -0.1871 0.4935 0.8494
vn 0.1721 0.5910 0.7881
vn -0.2604 0.9326 0.2501
vn 0.1012 0.9911 -0.0867
vn -0.2266 0.9563 -0.1849
vn -0.9902 -0.0845 0.1113
vn -0.7641 -0.6267 0.1532
vn -0.8080 -0.4811 0.3402
vn -0.1011 0.2766 -0.9556
vn -0.4141 0.4989 -0.7614
vn -0.1775 0.6485 -0.7402
vn 0.4620 0.8590 -0.2207
vn 0.8525 0.5215 -0.0353
vn 0.6883 0.6663 -0.2869
vn 0.6543 0.5664 0.5011
vn 0.8896 0.2029 0.4091
vn 0.9069 0.1296 -0.4009
vn 0.9703 0.1169 0.2117
vn 0.9946 -0.0921 -0.0468
vn 0.2578 0.1109 -0.9598
vn 0.5462 -0.1229 -0.8286
vn 0.1754 -0.2837 -0.9427
vn -0.1411 -0.0836 -0.9865
vn -0.4202 0.1259 -0.8986
vn -0.0277 0.0654 -0.9975
vn -0.4213 -0.1354 0.8968
vn -0.2121 -0.5201 0.8273
vn -0.0279 -0.0384 0.9989
vn 0.4648 -0.6725 -0.5760
vn 0.9107 0.2000 -0.3613
vn 0.6447 0.5567 -0.5238
vn 0.9692 0.2337 -0.0778
vn 0.8693 -0.3951 -0.2970
vn 0.9034 -0.1553 -0.3996
vn -0.7037 0.2995 0.6443
vn -0.4723 0.6761 0.5656
vn -0.7616 0.6088 0.2219
vn 0.6332 -0.7128 -0.3016
vn 0.7249 -0.6878 -0.0380
vn 0.3000 0.1031 -0.9483
vn 0.6975 0.1354 -0.7037
vn 0.4667 0.1331 -0.8743
vn 0.9069 0.1290 -0.4011
vn 0.1679 -0.9858 -0.0098
vn 0.2874 -0.9563 0.0534
vn 0.0174 -0.1185 -0.9928
vn 0.0354 0.2145 0.9761
vn 0.3313 0.1361 0.9337
vn 0.9426 0.1315 0.3069
vn 0.4828 0.1364 0.8651
vn -0.4982 0.8573 -0.1300
vn -0.5177 0.1158 0.8477
vn 0.2673 0.1236 0.9556
vn -0.1931 0.1200 0.9738
vn -0.5439 0.1558 0.8246
vn -0.6902 -0.3995 0.6033
vn -0.3957 -0.7442 0.5382
vn 0.4856 0.8668 0.1132
vn -0.0866 -0.2636 -0.9607
vn -0.9173 0.1076 0.3835
vn -0.4392 0.1168 0.8908
vn -0.9709 0.1155 0.2099
vn -0.9505 -0.2980 -0.0879
vn -0.7160 -0.6452 -0.2667
vn -0.1636 0.1813 -0.9697
vn -0.6365 0.3055 -0.7082
vn 0.9300 0.1548 -0.3334
vn 0.8404 0.2709 -0.4694
vn 0.7587 -0.3464 0.5518
vn 0.9907 -0.1120 0.0771
vn 0.8526 0.1656 0.4956
vn 0.8461 0.1324 0.5164
vn 0.4217 0.3395 0.8408
vn -0.6896 0.1447 0.7096
vn -0.2705 0.1229 -0.9548
vn 0.2966 0.1129 -0.9483
vn 0.3545 0.2236 -0.9079
vn -0.5114 -0.7775 -0.3661
vn -0.4927 -0.8671 -0.0731
vn -0.8860 -0.0088 0.4637
vn 0.2594 0.1959 0.9457
vn 0.1520 -0.2403 0.9587
vn -0.7843 -0.3534 -0.5098
vn -0.8759 -0.0732 -0.4768
vn -0.4470 -0.3386 -0.8280
vn -0.3390 -0.0456 -0.9397
vn -0.6937 -0.5201 -0.4983
vn -0.9036 -0.3540 -0.2410
vn -0.3564 -0.3589 -0.8627
vn -0.5136 -0.6277 -0.5849
vn 0.4719 0.1113 0.8746
vn 0.5102 0.1190 0.8518
vn 0.7475 -0.6342 0.1976
vn 0.4829 -0.8051 0.3445
vn -0.9946 -0.0542 -0.0881
vn -0.3945 -0.8560 0.3343
vn 0.9354 0.1138 0.3348
vn -0.1868 -0.9695 0.1585
vn -0.7227 0.6178 -0.3098
vn -0.3959 0.1178 0.9107
vn 0.3554 0.1101 0.9282
vn 0.9581 0.1094 0.2646
vn 0.9072 0.1303 -0.4000
vn 0.9043 0.1139 -0.4114
vn -0.3047 0.1288 0.9437
vn 0.0904 0.3257 -0.9411
vn 0.2337 0.6838 -0.6912
vn -0.7476 0.6625 -0.0469
vn -0.9705 0.2300 0.0720
vn -0.8932 0.1008 0.4383
vn 0.2088 0.8815 0.4234
vn -0.9154 0.1971 -0.3509
vn -0.9220 0.3714 -0.1095
vn 0.2103 -0.6957 0.6868
vn -0.1894 -0.1357 -0.9725
vn -0.9023 0.1377 -0.4086
vn -0.0826 -0.6542 0.7518
vn 0.7188 0.1310 -0.6828
vn -0.8334 0.1379 -0.5351
vn -0.3005 0.1249 -0.9456
vn -0.8676 0.1312 -0.4797
vn 0.4394 0.1876 -0.8785
vn -0.1765 -0.7694 0.6139
vn -0.3775 0.1362 -0.9160
vn 0.5195 0.1258 0.8452
vn -0.9572 0.1258 0.2605
vn -0.9380 0.1264 -0.3228
vn 0.9501 0.1121 -0.2912
vn -0.7021 0.1347 -0.6992
vn -0.8917 0.1208 0.4362
vn -0.3189 0.1071 -0.9417
vn 0.1240 -0.8276 -0.5475
vn 0.2673 -0.8697 -0.4149
vn -0.0227 -0.9031 -0.4289
vn -0.1410 -0.8642 0.4831
vn -0.0789 -0.8500 0.5208
vn -0.0496 -0.9668 0.2506
vn 0.1000 -0.9293 0.3556
vn -0.0288 -0.9805 0.1944
vn 0.2050 0.8999 -0.3849
vn -0.1006 -0.9929 -0.0640
vn -0.3264 -0.9251 -0.1939
vn -0.0948 -0.6387 -0.7636
vn -0.3139 -0.7564 -0.5738
vn -0.0912 -0.9856 -0.1423
vn 0.2496 -0.9518 -0.1782
vn -0.5098 0.7712 -0.3812
vn -0.2931 0.8533 -0.4312
vn -0.3228 -0.4682 -0.8226
vn -0.3275 -0.9169 -0.2283
vn 0.1313 -0.5805 -0.8036
vn -0.3043 -0.8736 -0.3797
usemtl material_0
s 1
f 1/1/1 2/2/2 3/3/3
f 4/4/4 5/5/5 3/3/3
f 6/6/6 7/7/7 8/8/8
f 9/9/9 10/10/10 11/11/11
f 12/12/12 13/13/13 14/14/14
f 13/13/13 15/15/15 16/16/16
f 17/17/17 18/18/18 19/19/19
f 20/20/20 21/21/21 22/22/22
f 23/23/23 24/24/24 25/25/25
f 26/26/26 27/27/27 28/28/28
f 29/29/29 22/22/22 21/21/21
f 30/30/30 31/31/31 32/32/32
f 19/19/19 33/33/33 34/34/34
f 35/35/35 36/36/36 37/37/37
f 19/19/19 38/38/38 33/33/33
f 39/39/39 38/38/38 19/19/19
f 40/40/40 41/41/41 42/42/42
f 17/17/17 43/43/43 18/18/18
f 44/44/44 39/39/39 45/45/45
f 21/21/21 17/17/17 34/34/34
f 20/20/20 22/22/22 46/46/46
f 2/2/2 1/1/1 47/47/47
f 48/48/48 49/49/49 50/50/50
f 32/32/32 14/14/14 13/13/13
f 3/3/3 5/5/5 51/51/51
f 26/26/26 28/28/28 52/52/52
f 50/50/50 53/53/53 54/54/54
f 36/36/36 1/1/1 3/3/3
f 54/54/54 55/55/55 48/48/48
f 34/34/34 29/29/29 21/21/21
f 6/6/6 8/8/8 56/56/56
f 56/56/56 8/8/8 57/57/57
f 15/15/15 13/13/13 58/58/58
f 16/16/16 32/32/32 13/13/13
f 59/59/59 20/20/20 46/46/46
f 60/60/60 61/61/61 62/62/62
f 7/7/7 63/63/63 64/64/64
f 65/65/65 66/66/66 10/67/10
f 67/68/67 40/40/40 68/69/68
f 69/70/69 70/71/70 71/72/71
f 50/50/50 72/73/72 53/53/53
f 73/74/73 16/75/16 15/76/15
f 57/57/57 27/27/27 56/56/56
f 74/77/74 55/55/55 54/54/54
f 75/78/75 76/79/76 77/80/77
f 64/64/64 78/81/78 79/82/79
f 2/2/2 73/74/73 15/76/15
f 80/83/80 56/56/56 26/26/26
f 81/84/81 28/28/28 82/85/82
f 35/35/35 1/1/1 36/36/36
f 83/86/83 84/87/84 85/88/85
f 23/23/23 85/89/85 86/90/86
f 87/91/87 88/92/88 83/86/83
f 89/93/89 85/89/85 23/23/23
f 85/88/85 90/94/90 87/91/87
f 85/88/85 87/91/87 83/86/83
f 28/28/28 91/95/91 92/96/92
f 92/96/92 48/48/48 28/28/28
f 84/87/84 83/86/83 88/92/88
f 93/97/93 69/70/69 94/98/94
f 21/21/21 20/20/20 17/17/17
f 84/87/84 88/92/88 95/99/95
f 70/71/70 69/70/69 93/97/93
f 88/92/88 87/91/87 64/64/64
f 96/100/96 7/7/7 79/82/79
f 70/71/70 19/19/19 97/101/97
f 95/99/95 88/92/88 63/63/63
f 63/63/63 6/6/6 95/99/95
f 98/102/98 96/100/96 79/82/79
f 88/92/88 64/64/64 63/63/63
f 18/18/18 97/101/97 19/19/19
f 10/67/10 66/66/66 99/103/99
f 100/104/100 53/53/53 101/105/101
f 10/10/10 9/9/9 65/106/65
f 101/105/101 72/73/72 102/107/102
f 103/108/103 104/109/104 102/110/102
f 93/97/93 45/45/45 39/39/39
f 35/35/35 105/111/105 1/1/1
f 9/9/9 11/11/11 106/112/106
f 11/11/11 107/113/107 106/112/106
f 37/37/37 108/114/108 109/115/109
f 93/97/93 39/39/39 70/71/70
f 35/35/35 109/115/109 110/116/110
f 2/2/2 111/117/111 3/3/3
f 2/2/2 47/47/47 73/74/73
f 107/113/107 31/31/31 106/112/106
f 112/118/112 109/115/109 113/119/113
f 1/1/1 105/111/105 47/47/47
f 35/35/35 37/37/37 109/115/109
f 72/120/72 103/108/103 102/110/102
f 101/105/101 16/75/16 73/74/73
f 72/120/72 49/121/49 103/108/103
f 100/104/100 54/54/54 53/53/53
f 82/85/82 114/122/114 69/123/69
f 84/87/84 86/124/86 85/88/85
f 25/25/25 115/125/115 23/23/23
f 66/66/66 112/118/112 99/103/99
f 34/34/34 17/17/17 19/19/19
f 116/126/116 24/127/24 84/87/84
f 33/33/33 29/29/29 34/34/34
f 77/80/77 40/40/40 75/78/75
f 82/85/82 28/28/28 117/128/117
f 25/25/25 42/42/42 20/20/20
f 86/124/86 84/87/84 24/127/24
f 19/19/19 70/71/70 39/39/39
f 43/43/43 17/17/17 118/129/118
f 108/114/108 113/119/113 109/115/109
f 65/106/65 9/9/9 106/112/106
f 90/130/90 85/89/85 89/93/89
f 119/131/119 120/132/120 121/133/121
f 108/114/108 99/103/99 113/119/113
f 31/31/31 30/30/30 122/134/122
f 32/32/32 31/31/31 14/14/14
f 47/47/47 101/105/101 73/74/73
f 17/17/17 20/20/20 118/129/118
f 99/103/99 112/118/112 113/119/113
f 101/105/101 102/107/102 16/75/16
f 27/27/27 117/128/117 28/28/28
f 63/63/63 7/7/7 6/6/6
f 117/128/117 114/122/114 82/85/82
f 27/27/27 123/135/123 117/128/117
f 25/25/25 124/136/124 120/137/120
f 31/31/31 122/134/122 106/112/106
f 59/59/59 25/25/25 20/20/20
f 26/26/26 56/56/56 27/27/27
f 125/138/125 81/84/81 82/85/82
f 70/71/70 97/101/97 71/72/71
f 81/84/81 91/95/91 28/28/28
f 125/138/125 71/139/71 81/84/81
f 125/138/125 82/85/82 69/123/69
f 24/24/24 23/23/23 86/90/86
f 71/139/71 97/140/97 91/95/91
f 81/84/81 71/139/71 91/95/91
f 60/60/60 6/6/6 80/83/80
f 54/54/54 48/48/48 50/50/50
f 110/116/110 105/111/105 35/35/35
f 61/61/61 60/60/60 52/52/52
f 97/140/97 92/96/92 91/95/91
f 48/48/48 92/96/92 18/141/18
f 61/61/61 48/48/48 55/55/55
f 80/83/80 6/6/6 56/56/56
f 76/79/76 103/108/103 77/80/77
f 49/49/49 48/48/48 18/141/18
f 126/142/126 62/62/62 55/55/55
f 74/77/74 126/142/126 55/55/55
f 6/6/6 60/60/60 62/62/62
f 67/68/67 77/80/77 103/108/103
f 75/143/75 119/131/119 127/144/127
f 68/69/68 77/80/77 67/68/67
f 67/68/67 41/41/41 40/40/40
f 120/132/120 119/131/119 75/143/75
f 40/40/40 120/137/120 75/78/75
f 67/68/67 128/145/128 41/41/41
f 77/80/77 68/69/68 40/40/40
f 18/18/18 67/68/67 49/121/49
f 62/62/62 126/142/126 121/133/121
f 121/133/121 116/126/116 62/62/62
f 18/18/18 43/43/43 128/145/128
f 40/40/40 25/25/25 120/137/120
f 18/18/18 128/145/128 67/68/67
f 103/108/103 49/121/49 67/68/67
f 129/146/129 124/147/124 24/127/24
f 110/116/110 127/144/127 130/148/130
f 110/116/110 100/104/100 105/111/105
f 121/133/121 124/147/124 129/146/129
f 128/145/128 43/43/43 41/41/41
f 115/125/115 89/93/89 23/23/23
f 121/133/121 120/132/120 124/147/124
f 100/104/100 110/116/110 130/148/130
f 43/43/43 42/42/42 41/41/41
f 129/146/129 116/126/116 121/133/121
f 119/131/119 121/133/121 126/142/126
f 129/146/129 24/127/24 116/126/116
f 124/136/124 25/25/25 24/24/24
f 40/40/40 42/42/42 25/25/25
f 42/42/42 118/129/118 20/20/20
f 42/42/42 43/43/43 118/129/118
f 62/62/62 116/126/116 84/87/84
f 53/53/53 72/73/72 101/105/101
f 48/48/48 61/61/61 28/28/28
f 69/123/69 71/139/71 125/138/125
f 74/77/74 100/104/100 130/148/130
f 130/148/130 127/144/127 126/142/126
f 62/62/62 95/99/95 6/6/6
f 60/60/60 80/83/80 52/52/52
f 119/131/119 126/142/126 127/144/127
f 52/52/52 80/83/80 26/26/26
f 92/96/92 97/140/97 18/141/18
f 52/52/52 28/28/28 61/61/61
f 61/61/61 55/55/55 62/62/62
f 100/104/100 74/77/74 54/54/54
f 126/142/126 74/77/74 130/148/130
f 49/49/49 72/73/72 50/50/50
f 112/118/112 66/66/66 131/149/131
f 131/149/131 75/143/75 127/144/127
f 127/144/127 112/118/112 131/149/131
f 103/108/103 76/79/76 104/109/104
f 131/150/131 76/79/76 75/78/75
f 122/134/122 104/109/104 76/79/76
f 32/32/32 104/109/104 30/30/30
f 30/30/30 104/109/104 122/134/122
f 104/109/104 32/32/32 102/110/102
f 105/111/105 100/104/100 101/105/101
f 65/65/65 131/149/131 66/66/66
f 106/112/106 122/134/122 131/150/131
f 131/150/131 122/134/122 76/79/76
f 127/144/127 109/115/109 112/118/112
f 109/115/109 127/144/127 110/116/110
f 62/62/62 84/87/84 95/99/95
f 64/64/64 87/91/87 90/94/90
f 132/151/132 133/152/133 134/153/134
f 135/154/135 123/135/123 57/57/57
f 136/155/136 114/122/114 117/128/117
f 108/114/108 51/51/51 99/103/99
f 137/156/137 45/45/45 138/157/138
f 139/158/139 136/155/136 135/154/135
f 139/158/139 137/159/137 136/155/136
f 13/13/13 12/12/12 58/58/58
f 107/113/107 11/11/11 140/160/140
f 140/160/140 12/12/12 14/14/14
f 31/31/31 140/160/140 14/14/14
f 141/161/141 139/158/139 98/102/98
f 79/82/79 142/162/142 98/102/98
f 8/8/8 7/7/7 57/57/57
f 29/29/29 38/38/38 133/152/133
f 29/29/29 133/152/133 132/151/132
f 143/163/143 134/153/134 144/164/144
f 145/165/145 44/44/44 141/166/141
f 134/153/134 146/167/146 145/165/145
f 131/150/131 65/106/65 106/112/106
f 16/16/16 102/110/102 32/32/32
f 101/105/101 47/47/47 105/111/105
f 145/165/145 146/167/146 44/44/44
f 90/130/90 144/164/144 78/168/78
f 64/64/64 90/94/90 78/81/78
f 147/169/147 51/51/51 5/5/5
f 148/170/148 5/171/5 140/160/140
f 58/58/58 12/12/12 4/172/4
f 138/157/138 45/45/45 94/98/94
f 149/173/149 115/125/115 59/59/59
f 149/173/149 89/93/89 115/125/115
f 150/174/150 145/165/145 141/166/141
f 94/175/94 69/123/69 114/122/114
f 31/31/31 107/113/107 140/160/140
f 117/128/117 123/135/123 135/154/135
f 44/44/44 139/176/139 141/166/141
f 3/3/3 108/114/108 37/37/37
f 111/117/111 2/2/2 15/76/15
f 135/154/135 57/57/57 96/100/96
f 93/97/93 94/98/94 45/45/45
f 138/177/138 114/122/114 136/155/136
f 94/175/94 114/122/114 138/177/138
f 4/4/4 3/3/3 111/117/111
f 12/12/12 140/160/140 4/172/4
f 136/155/136 117/128/117 135/154/135
f 138/177/138 136/155/136 137/159/137
f 111/117/111 15/76/15 58/178/58
f 11/11/11 147/179/147 148/170/148
f 5/171/5 4/172/4 140/160/140
f 147/179/147 5/171/5 148/170/148
f 142/162/142 141/161/141 98/102/98
f 38/38/38 29/29/29 33/33/33
f 143/163/143 59/59/59 46/46/46
f 143/163/143 151/180/151 132/151/132
f 151/180/151 22/22/22 29/29/29
f 46/46/46 22/22/22 151/180/151
f 144/164/144 90/130/90 149/173/149
f 99/103/99 147/169/147 10/67/10
f 38/38/38 39/39/39 146/167/146
f 78/81/78 150/181/150 142/162/142
f 144/164/144 59/59/59 143/163/143
f 151/180/151 29/29/29 132/151/132
f 90/130/90 89/93/89 149/173/149
f 27/27/27 57/57/57 123/135/123
f 133/152/133 146/167/146 134/153/134
f 7/7/7 64/64/64 79/82/79
f 144/164/144 134/153/134 152/182/152
f 134/153/134 145/165/145 152/182/152
f 38/38/38 146/167/146 133/152/133
f 39/39/39 44/44/44 146/167/146
f 152/182/152 145/165/145 150/174/150
f 152/182/152 150/174/150 78/168/78
f 4/4/4 111/117/111 58/178/58
f 3/3/3 37/37/37 36/36/36
f 143/163/143 46/46/46 151/180/151
f 115/125/115 25/25/25 59/59/59
f 144/164/144 149/173/149 59/59/59
f 147/179/147 11/11/11 10/10/10
f 132/151/132 134/153/134 143/163/143
f 144/164/144 152/182/152 78/168/78
f 96/100/96 57/57/57 7/7/7
f 11/11/11 148/170/148 140/160/140
f 99/103/99 51/51/51 147/169/147
f 150/181/150 141/161/141 142/162/142
f 44/44/44 45/45/45 139/176/139
f 139/176/139 45/45/45 137/156/137
f 108/114/108 3/3/3 51/51/51
f 139/158/139 135/154/135 98/102/98
f 78/81/78 142/162/142 79/82/79
f 98/102/98 135/154/135 96/100/96
