# This file uses centimeters as units for non-parametric coordinates.

mtllib fluteUVd.mtl
g default
v -31.928593 3.275928 0.677473
v -30.730894 4.536798 0.607791
v -33.163048 4.465197 0.978970
v -31.965347 5.726067 0.909288
v -30.075113 -0.269838 0.816292
v -28.896524 -0.280701 -0.906043
v -28.730967 2.408020 -0.793116
v -30.094151 2.318030 0.699550
v -28.986483 -0.280584 0.949263
v -28.998066 2.419360 0.956697
v -29.059174 4.064333 -0.667738
v -29.331476 3.943054 0.874434
v -30.243259 3.825877 0.727788
v -29.420624 5.940996 0.889097
v -30.321692 5.985245 0.598602
v -29.149883 5.993798 -0.756920
v -28.546839 8.212667 -0.844823
v -28.785730 7.595690 0.955983
v -29.719610 7.512351 0.696792
v -30.445671 -0.264446 -0.121444
v -30.331249 2.339031 -0.253505
v -30.554396 3.810616 -0.216247
v -30.498604 5.995172 -0.235113
v -29.984520 7.505733 -0.253346
v -28.365353 -0.264566 0.071704
v -28.392609 2.485389 0.125983
v -28.765509 4.031570 0.096744
v -28.818516 5.948533 0.119106
v -28.097303 7.902529 0.097381
v -29.876312 -0.272137 -0.940967
v -29.770687 2.384754 -0.935374
v -29.941833 3.988334 -0.892039
v -29.994761 6.013371 -0.856196
v -29.435644 7.875040 -0.902695
v -31.358503 4.015955 0.738729
v -31.376453 3.719606 0.761411
v -31.477516 3.753696 0.529069
v -31.433027 4.013990 0.523165
v -30.985926 3.208537 0.670126
v -30.923983 3.738487 0.705817
v -31.087605 3.727853 0.240562
v -31.107727 3.217505 0.336504
vt 0.027060 0.076061
vt 0.225183 0.076147
vt 0.225098 0.274270
vt 0.026974 0.274184
vt 0.030721 0.575746
vt 0.027326 0.700549
vt 0.489468 0.337187
vt 0.360932 0.334022
vt 0.608674 0.022444
vt 0.602960 0.332915
vt 0.618882 0.518078
vt 0.495990 0.525124
vt 0.377533 0.532308
vt 0.549167 0.758441
vt 0.443962 0.779655
vt 0.665338 0.745286
vt 0.107408 0.813257
vt 0.718049 0.986266
vt 0.121609 0.922821
vt 0.708403 0.320035
vt 0.238550 0.690849
vt 0.232001 0.579432
vt 0.823400 0.316545
vt 0.829688 0.491008
vt 0.721173 0.509647
vt 0.249509 0.303879
vt 0.954568 0.016447
vt 0.776050 0.726887
vt 0.873919 0.703694
vt 0.310364 0.912384
vt 0.325151 0.805216
vt 0.352098 0.814571
vt 0.406343 0.978037
vt 0.131668 0.401015
vt 0.238667 0.498365
vt 0.279176 0.452677
vt 0.288148 0.513164
vt 0.233499 0.517351
vt 0.239817 0.437252
vt 0.209629 0.501364
vt 0.218837 0.531804
vt 0.184163 0.459276
vt 0.902779 0.915212
vt 0.834142 0.988945
vt 0.217420 0.744450
vt 0.606555 0.954467
vt 0.510146 0.945455
vt 0.222816 0.970861
vt 0.257541 0.552928
vt 0.934428 0.462072
vt 0.281595 0.601021
vt 0.841013 0.015064
vt 0.270111 0.016529
vt 0.133019 0.523690
vt 0.133440 0.761558
vt 0.731734 0.016317
vt 0.962968 0.682763
vt 0.980322 0.851985
vt 0.378375 0.022886
vt 0.923724 0.308850
vt 0.493211 0.025244
vt 0.181787 0.513576
vn 0.152855 -0.090813 0.984067
vn 0.152855 -0.090813 0.984067
vn 0.152855 -0.090813 0.984067
vn 0.152855 -0.090813 0.984067
vn -0.176530 0.019321 0.984106
vn 0.369617 0.011067 0.929118
vn 0.396204 0.010522 0.918102
vn -0.176530 0.019321 0.984106
vn 0.995571 -0.006466 0.093794
vn 0.993921 -0.006312 0.109919
vn 0.961159 0.233676 0.146866
vn 0.962653 0.233787 0.136537
vn 0.782456 0.201427 0.589228
vn 0.782456 0.201427 0.589228
vn -0.195709 -0.013676 0.980567
vn -0.195709 -0.013676 0.980567
vn -0.195709 -0.013676 0.980567
vn -0.195709 -0.013676 0.980567
vn -0.235039 0.017297 0.971832
vn -0.235039 0.017297 0.971832
vn -0.235039 0.017297 0.971832
vn -0.235039 0.017297 0.971832
vn 0.980866 0.029379 0.192455
vn 0.985049 0.029537 0.169726
vn 0.797276 0.023246 0.603167
vn 0.797276 0.023246 0.603167
vn 0.775266 -0.298304 0.556756
vn 0.775266 -0.298304 0.556756
vn 0.940430 -0.334301 0.061917
vn 0.940781 -0.327751 -0.086663
vn -0.287626 0.062236 0.955719
vn -0.287626 0.062236 0.955719
vn -0.287626 0.062236 0.955719
vn -0.287626 0.062235 0.955719
vn 0.087258 0.017657 -0.996029
vn 0.087258 0.017657 -0.996029
vn -0.390740 0.020922 -0.920263
vn -0.361049 0.020856 -0.932314
vn -0.268641 0.009641 -0.963192
vn -0.272701 0.008968 -0.962057
vn 0.182800 0.078721 -0.979994
vn 0.182800 0.078721 -0.979994
vn -0.951420 0.032157 0.306213
vn -0.951420 0.032157 0.306213
vn -0.951420 0.032157 0.306213
vn -0.951420 0.032157 0.306213
vn 0.184307 -0.006563 -0.982847
vn 0.184307 -0.006563 -0.982847
vn -0.377690 -0.001485 -0.925931
vn -0.350068 -0.001775 -0.936723
vn -0.421982 0.111360 -0.899739
vn -0.143241 0.018096 -0.989522
vn 0.101298 -0.061555 -0.992950
vn 0.101298 -0.061555 -0.992950
vn -0.915956 0.330573 0.227476
vn -0.915956 0.330573 0.227476
vn -0.915956 0.330573 0.227476
vn -0.915956 0.330573 0.227476
vn -0.964316 0.003995 0.264723
vn -0.964316 0.003995 0.264723
vn -0.964316 0.003995 0.264723
vn -0.964316 0.003995 0.264723
vn 0.909183 -0.010323 -0.416268
vn 0.909183 -0.010323 -0.416268
vn 0.913395 0.210428 -0.348467
vn 0.913395 0.210428 -0.348467
vn 0.934541 0.028755 -0.354692
vn 0.934541 0.028755 -0.354692
vn 0.859643 -0.283965 -0.424710
vn 0.859643 -0.283965 -0.424710
vn -0.799096 0.018980 -0.600904
vn -0.799096 0.018980 -0.600904
vn -0.747879 -0.078617 -0.659164
vn -0.747879 -0.078617 -0.659164
vn -0.758100 0.003147 -0.652130
vn -0.758100 0.003147 -0.652130
vn -0.782304 0.237913 -0.575672
vn -0.782304 0.237913 -0.575672
vn 0.123036 -0.027515 0.992021
vn -0.036632 -0.033026 0.998783
vn -0.013379 -0.032274 0.999390
vn 0.123036 -0.027515 0.992021
vn -0.699433 -0.689462 0.188247
vn -0.698800 -0.690295 0.187539
vn -0.750430 -0.612285 0.248921
vn -0.750430 -0.612285 0.248921
vn -0.596267 -0.055847 -0.800841
vn -0.643055 -0.082584 -0.761354
vn -0.649974 -0.086650 -0.755001
vn -0.596267 -0.055847 -0.800841
vn 0.006576 0.999735 -0.022078
vn -0.000994 0.999810 -0.019446
vn 0.520456 0.830752 -0.197426
vn 0.520456 0.830752 -0.197426
vn -0.921017 0.122302 0.369825
vn -0.921017 0.122302 0.369826
vn -0.921017 0.122302 0.369826
vn -0.921017 0.122302 0.369825
vn -0.049705 -0.033441 0.998204
vn -0.049705 -0.033441 0.998204
vn -0.129796 0.991212 0.025512
vn -0.129796 0.991212 0.025512
vn -0.654394 -0.089264 -0.750867
vn -0.654394 -0.089264 -0.750867
vn -0.687869 -0.704307 0.175466
vn -0.687869 -0.704307 0.175466
vn -0.256907 0.938453 0.230877
vn -0.256907 0.938453 0.230877
vn -0.256907 0.938453 0.230877
vn -0.256907 0.938453 0.230877
vn -0.452542 0.883629 0.120020
vn -0.452542 0.883629 0.120020
vn -0.452542 0.883629 0.120020
vn -0.020879 0.946657 0.321567
vn -0.020879 0.946656 0.321567
vn -0.020879 0.946656 0.321567
vn -0.009329 -0.999957 -0.000077
vn -0.009329 -0.999956 -0.000077
vn -0.009329 -0.999956 -0.000077
vn -0.009329 -0.999957 -0.000077
vn -0.013884 -0.999904 -0.000263
vn -0.013884 -0.999904 -0.000263
vn -0.013884 -0.999904 -0.000263
vn 0.027771 -0.999613 0.001409
vn 0.027771 -0.999613 0.001409
vn 0.027771 -0.999613 0.001409
s off
g LRflute_comb
usemtl initialShadingGroup
f 1/1/1 2/2/2 4/3/3 3/4/4
s 1
f 5/59/5 9/61/6 10/7/7 8/8/8
f 10/7/7 9/61/6 25/9/9 26/10/10
s 2
f 26/10/11 27/11/12 12/12/13 10/7/14
s off
f 10/7/15 12/12/16 13/13/17 8/8/18
f 12/12/19 14/14/20 15/15/21 13/13/22
s 3
f 27/11/23 28/16/24 14/14/25 12/12/26
s 4
f 18/46/27 14/14/28 28/16/29 29/18/30
s off
f 19/47/31 15/15/32 14/14/33 18/46/34
s 5
f 7/20/35 6/56/36 30/52/37 31/23/38
s 6
f 31/23/39 32/24/40 11/25/41 7/20/42
s off
f 21/26/43 20/53/44 5/59/45 8/8/46
s 7
f 16/28/47 11/25/48 32/24/49 33/29/50
s 8
f 33/29/51 34/43/52 17/44/53 16/28/54
s off
f 23/32/55 15/15/56 19/47/57 24/33/58
f 23/32/59 22/51/60 13/13/61 15/15/62
s 1
f 26/10/10 25/9/9 6/56/63 7/20/64
s 2
f 7/20/65 11/25/66 27/11/12 26/10/11
s 3
f 11/25/67 16/28/68 28/16/24 27/11/23
s 4
f 29/18/30 28/16/29 16/28/69 17/44/70
s 5
f 31/23/38 30/52/37 20/27/71 21/60/72
s 6
f 21/60/73 22/50/74 32/24/40 31/23/39
s 7
f 33/29/50 32/24/49 22/50/75 23/57/76
s 8
f 23/57/77 24/58/78 34/43/52 33/29/51
s 9
f 36/35/79 39/36/80 40/37/81 35/38/82
s 10
f 42/39/83 39/36/84 36/35/85 37/40/86
s 11
f 38/62/87 41/42/88 42/39/89 37/40/90
s 12
f 40/37/91 41/49/92 38/41/93 35/38/94
s off
f 36/35/95 35/38/96 38/41/97 37/40/98
s 9
f 40/37/81 39/36/80 8/8/99 13/13/100
s 12
f 22/51/101 41/49/92 40/37/91 13/13/102
s 11
f 42/39/89 41/42/88 22/34/103 21/26/104
s 10
f 8/8/105 39/36/84 42/39/83 21/26/106
s off
f 17/31/107 34/30/108 19/19/109 18/17/110
f 24/48/111 19/19/112 34/30/113
f 18/17/114 29/45/115 17/31/116
f 9/6/117 5/5/118 30/22/119 6/21/120
f 20/54/121 30/22/122 5/5/123
f 6/21/124 25/55/125 9/6/126
