# This file uses centimeters as units for non-parametric coordinates.

mtllib GemCello.mtl
g default
v 0.521293 1.839555 0.009093
v 0.414959 1.912776 -0.064354
v 0.144464 2.011410 0.289521
v 0.199328 1.894786 0.410149
v 0.281063 1.690215 -0.487950
v 0.298785 1.563565 -0.512582
v -0.298314 1.538725 -0.520361
v -0.280239 1.648574 -0.496859
v -0.577065 1.634548 -0.000214
v -0.539148 1.773964 -0.006234
v -0.270970 1.820381 0.450870
v -0.250671 1.921422 0.331022
v 0.556293 1.869081 0.003780
v 0.449958 1.942302 -0.069667
v 0.157141 2.050361 0.314371
v 0.212006 1.933737 0.435000
v 0.319231 1.578261 -0.550624
v 0.301509 1.704911 -0.525992
v -0.301866 1.659500 -0.534989
v -0.319941 1.549651 -0.558491
v -0.581558 1.790537 -0.007982
v -0.619475 1.651122 -0.001962
v -0.293629 1.850150 0.479373
v -0.273330 1.951192 0.359525
vt 0.273068 0.477689
vt 0.219118 0.099775
vt 0.235762 0.169069
vt 0.250038 0.400230
vt 0.367332 0.506391
vt 0.290844 0.214776
vt 0.208958 0.182723
vt 0.212458 0.410052
vt 0.188636 0.096233
vt 0.252668 0.494364
vt 0.278500 0.331211
vt 0.239416 0.043714
vt 0.504928 0.905901
vt 0.229898 0.173719
vt 0.581211 0.947970
vt 0.268077 0.482881
vt 0.667793 0.946126
vt 0.257240 0.324235
vt 0.576590 0.970046
vt 0.205407 0.409720
vt 0.485602 0.942129
vt 0.248365 0.500035
vt 0.273556 0.325775
vt 0.649093 0.912867
vt 0.405598 0.903864
vt 0.242560 0.399922
vt 0.580474 0.920531
vt 0.236182 0.037117
vt 0.181757 0.094405
vt 0.480097 0.963977
vt 0.576951 0.987771
vt 0.203584 0.187298
vt 0.424371 0.853349
vt 0.258144 0.028739
vt 0.497240 0.927680
vt 0.212030 0.098508
vt 0.341804 0.522028
vt 0.660113 0.934836
vt 0.426185 0.890347
vt 0.290614 0.207262
vt 0.291399 0.199957
vt 0.340293 0.514837
vt 0.368084 0.513478
vt 0.674107 0.965410
vt 0.444152 0.849014
vt 0.291570 0.221865
vt 0.261729 0.034898
vt 0.261008 0.330285
vn 0.569847 0.771927 0.281786
vn 0.569847 0.771927 0.281786
vn 0.569847 0.771927 0.281786
vn 0.569847 0.771927 0.281786
vn 0.787962 0.368623 -0.493187
vn 0.787962 0.368623 -0.493187
vn 0.787962 0.368622 -0.493187
vn 0.787962 0.368622 -0.493187
vn 0.001419 0.199437 -0.979910
vn 0.001419 0.199437 -0.979910
vn 0.001419 0.199437 -0.979910
vn 0.001419 0.199437 -0.979910
vn -0.838914 0.223259 -0.496366
vn -0.838914 0.223259 -0.496366
vn -0.838914 0.223259 -0.496366
vn -0.838914 0.223259 -0.496366
vn -0.804081 0.416661 0.424084
vn -0.804081 0.416661 0.424084
vn -0.804081 0.416661 0.424084
vn -0.804081 0.416661 0.424084
vn -0.078619 0.733451 0.675181
vn -0.078619 0.733451 0.675181
vn -0.078619 0.733451 0.675181
vn -0.078619 0.733451 0.675181
vn -0.648616 0.660106 -0.378889
vn -0.411065 0.584675 -0.699414
vn -0.405930 0.584884 -0.702234
vn -0.648813 0.660352 -0.378124
vn 0.397169 -0.600558 0.693965
vn 0.654648 -0.682414 0.325189
vn 0.655606 -0.684699 0.318383
vn 0.399681 -0.600459 0.692607
vn -0.686121 0.711485 -0.151746
vn -0.686121 0.711485 -0.151746
vn 0.668132 -0.736905 0.102812
vn 0.668132 -0.736905 0.102812
vn -0.075518 0.944752 0.318968
vn -0.075518 0.944752 0.318968
vn -0.075518 0.944752 0.318968
vn -0.075518 0.944752 0.318968
vn 0.044967 -0.946643 -0.319133
vn -0.171237 -0.968207 -0.182355
vn -0.172376 -0.968150 -0.181583
vn 0.044967 -0.946643 -0.319133
vn 0.403449 0.914844 -0.016993
vn 0.403449 0.914844 -0.016993
vn 0.403449 0.914844 -0.016993
vn 0.403449 0.914844 -0.016993
vn -0.377017 -0.925622 -0.032884
vn -0.377017 -0.925622 -0.032884
vn -0.328266 -0.773726 0.541839
vn -0.328266 -0.773726 0.541839
vn -0.328266 -0.773726 0.541839
vn -0.328266 -0.773726 0.541839
vn 0.298443 0.755641 -0.583042
vn 0.298443 0.755641 -0.583042
vn 0.298443 0.755641 -0.583042
vn 0.298443 0.755641 -0.583042
vn -0.215225 0.579185 -0.786271
vn -0.215225 0.579185 -0.786271
vn 0.164428 -0.589896 0.790561
vn 0.164428 -0.589896 0.790561
s off
g polySurface1
usemtl initialShadingGroup
f 13/35/1 14/13/2 15/27/3 16/15/4
f 17/33/5 18/45/6 14/13/7 13/35/8
f 19/19/9 18/17/10 17/44/11 20/31/12
f 21/21/13 19/19/14 20/31/15 22/30/16
f 22/30/17 23/25/18 24/39/19 21/21/20
f 15/27/21 24/24/22 23/38/23 16/15/24
s 1
f 2/2/25 3/3/26 15/14/27 14/36/28
s 2
f 4/4/29 1/1/30 13/16/31 16/26/32
s 1
f 5/47/33 2/2/25 14/36/28 18/34/34
s 2
f 1/1/30 6/5/35 17/43/36 13/16/31
s off
f 8/7/37 5/6/38 18/46/39 19/32/40
s 3
f 6/48/41 7/8/42 20/20/43 17/18/44
s off
f 10/9/45 8/7/46 19/32/47 21/29/48
s 3
f 7/8/42 9/10/49 22/22/50 20/20/43
s off
f 9/10/51 11/42/52 23/37/53 22/22/54
f 12/12/55 10/9/56 21/29/57 24/28/58
s 1
f 3/3/26 12/41/59 24/40/60 15/14/27
s 2
f 11/11/61 4/4/29 16/26/32 23/23/62
g default
v 0.556724 1.714317 0.001312
v 0.527554 1.812992 0.009614
v 0.277399 1.750546 0.469617
v 0.294021 1.628113 0.493213
v 0.275402 1.850100 -0.430476
v 0.227526 1.926424 -0.360763
v -0.248337 1.865924 -0.440002
v -0.227926 1.933435 -0.345567
v -0.519640 1.855936 -0.000625
v -0.443251 1.902243 0.037139
v -0.258834 1.738340 0.477654
v -0.251846 1.812042 0.461886
v 0.582483 1.725851 0.002828
v 0.553313 1.824526 0.011130
v 0.291110 1.757048 0.493121
v 0.307732 1.634615 0.516717
v 0.239957 1.946661 -0.377590
v 0.287833 1.870337 -0.447303
v -0.236405 1.958127 -0.360604
v -0.256816 1.890616 -0.455039
v -0.464090 1.921910 0.040318
v -0.540478 1.875603 0.002554
v -0.263822 1.822221 0.485264
v -0.270810 1.748519 0.501032
vt 0.732231 0.084115
vt 0.929654 0.312723
vt 0.891041 0.239955
vt 0.798897 0.141769
vt 0.840480 0.208924
vt 0.650281 0.098732
vt 0.906337 0.235808
vt 0.801871 0.120520
vt 0.941673 0.294734
vt 0.738506 0.070732
vt 0.926857 0.367300
vt 0.789567 0.229361
vt 0.098003 0.087693
vt 0.893474 0.236324
vt 0.080219 0.178250
vt 0.733355 0.079846
vt 0.172378 0.212464
vt 0.829552 0.199478
vt 0.125395 0.155387
vt 0.805730 0.117836
vt 0.129217 0.083784
vt 0.739344 0.066312
vt 0.139837 0.250538
vt 0.793226 0.231806
vt 0.177586 0.017575
vt 0.802972 0.140189
vt 0.099243 0.173677
vt 0.930137 0.370228
vt 0.114329 0.081670
vt 0.946136 0.294164
vt 0.109889 0.165058
vt 0.909251 0.232118
vt 0.116687 0.007120
vt 0.896731 0.383641
vt 0.081988 0.086520
vt 0.934066 0.312551
vt 0.650767 0.085461
vt 0.129292 0.255776
vt 0.182732 0.028122
vt 0.806611 0.227659
vt 0.653475 0.088923
vt 0.808203 0.231762
vt 0.647675 0.095006
vt 0.165472 0.228720
vt 0.132314 0.015474
vt 0.840193 0.204390
vt 0.825043 0.198936
vt 0.893671 0.380277
vn 0.846425 0.209169 0.489707
vn 0.846425 0.209169 0.489707
vn 0.846425 0.209169 0.489707
vn 0.846425 0.209169 0.489707
vn 0.764826 0.511396 -0.391809
vn 0.764826 0.511396 -0.391809
vn 0.764826 0.511396 -0.391809
vn 0.764826 0.511396 -0.391809
vn 0.017472 0.753442 -0.657282
vn 0.017472 0.753442 -0.657282
vn 0.017472 0.753442 -0.657282
vn 0.017472 0.753442 -0.657282
vn -0.547184 0.789209 -0.278817
vn -0.547184 0.789209 -0.278817
vn -0.547184 0.789209 -0.278817
vn -0.547184 0.789209 -0.278817
vn -0.758119 0.438184 0.482960
vn -0.758119 0.438184 0.482960
vn -0.758119 0.438184 0.482960
vn -0.758119 0.438184 0.482960
vn 0.010806 0.197273 0.980289
vn 0.010806 0.197273 0.980289
vn 0.010806 0.197273 0.980289
vn 0.010806 0.197273 0.980289
vn -0.374156 0.924244 -0.076029
vn -0.374156 0.924244 -0.076029
vn -0.374156 0.924244 -0.076029
vn -0.374156 0.924244 -0.076029
vn 0.390625 -0.919373 0.046537
vn 0.390625 -0.919373 0.046537
vn 0.390625 -0.919373 0.046537
vn 0.390625 -0.919373 0.046537
vn -0.394339 0.737954 0.547649
vn -0.394340 0.737954 0.547649
vn -0.394340 0.737954 0.547649
vn -0.394340 0.737954 0.547649
vn 0.418772 -0.750079 -0.511871
vn 0.418772 -0.750079 -0.511871
vn 0.418772 -0.750079 -0.511871
vn 0.418772 -0.750079 -0.511871
vn 0.039623 0.575721 0.816686
vn 0.039623 0.575721 0.816686
vn 0.039623 0.575721 0.816686
vn 0.039623 0.575721 0.816686
vn -0.006353 -0.578118 -0.815928
vn -0.006353 -0.578118 -0.815928
vn -0.006353 -0.578118 -0.815928
vn -0.006353 -0.578118 -0.815928
vn 0.690669 0.574038 0.439837
vn 0.690669 0.574038 0.439837
vn 0.690669 0.574038 0.439837
vn 0.690669 0.574038 0.439837
vn -0.689229 -0.573779 -0.442426
vn -0.689229 -0.573779 -0.442426
vn -0.689229 -0.573779 -0.442426
vn -0.689229 -0.573779 -0.442426
vn 0.619111 0.777700 -0.109020
vn 0.619111 0.777700 -0.109020
vn 0.619111 0.777700 -0.109020
vn 0.619111 0.777700 -0.109020
vn -0.606009 -0.784321 0.132646
vn -0.411984 -0.878853 0.240598
vn -0.416717 -0.877253 0.238272
vn -0.606008 -0.784321 0.132646
vn 0.114041 0.934653 -0.336777
vn 0.114041 0.934653 -0.336777
vn 0.114041 0.934653 -0.336777
vn 0.114041 0.934653 -0.336777
vn -0.191977 -0.922349 0.335287
vn -0.191977 -0.922349 0.335287
s off
g polySurface2
usemtl initialShadingGroup
f 37/83/63 38/61/64 39/75/65 40/63/66
f 41/93/67 38/61/68 37/83/69 42/81/70
f 43/67/71 41/65/72 42/92/73 44/79/74
f 45/69/75 43/67/76 44/79/77 46/77/78
f 47/87/79 45/69/80 46/77/81 48/73/82
f 39/75/83 47/71/84 48/86/85 40/63/86
f 26/50/87 27/51/88 39/62/89 38/84/90
f 28/52/91 25/49/92 37/64/93 40/74/94
f 30/96/95 26/50/96 38/84/97 41/82/98
f 25/49/99 29/54/100 42/91/101 37/64/102
f 32/55/103 30/53/104 41/94/105 43/80/106
f 29/95/107 31/56/108 44/68/109 42/66/110
f 34/57/111 32/55/112 43/80/113 45/78/114
f 31/56/115 33/58/116 46/70/117 44/68/118
f 36/59/119 34/57/120 45/78/121 47/76/122
s 1
f 33/58/123 35/89/124 48/85/125 46/70/126
s off
f 27/51/127 36/90/128 47/88/129 39/62/130
s 1
f 35/60/124 28/52/131 40/74/132 48/72/125
g default
v 0.835189 -1.408027 0.009087
v 0.653708 -1.522945 0.001304
v 0.527336 -1.216335 -1.071172
v 0.634932 -1.146638 -1.092983
v -0.570983 -0.753798 -1.010840
v -0.570817 -0.646402 -0.987043
v -1.147056 -0.690680 -0.007913
v -1.114198 -0.571106 -0.013659
v -0.582582 -0.938453 1.042683
v -0.570887 -0.823239 1.013639
v 0.498881 -1.183689 1.080530
v 0.638635 -1.084613 1.080480
v 0.874998 -1.464820 0.012040
v 0.693517 -1.579738 0.004256
v 0.511831 -1.251307 -1.112326
v 0.619427 -1.181610 -1.134137
v -0.599166 -0.732137 -1.064184
v -0.599000 -0.624741 -1.040387
v -1.211677 -0.675638 -0.008393
v -1.178819 -0.556064 -0.014139
v -0.612596 -0.932290 1.098933
v -0.600902 -0.817077 1.069889
v 0.678659 -1.110448 1.123907
v 0.538905 -1.209524 1.123957
vt 0.852086 0.060147
vt 0.943891 0.212121
vt 0.833103 0.083348
vt 0.971037 0.187424
vt 0.656924 0.043770
vt 0.397689 0.575681
vt 0.163112 0.387769
vt 0.224051 0.566048
vt 0.255207 0.553638
vt 0.137339 0.402530
vt 0.231318 0.234091
vt 0.959617 0.384192
vt 0.072176 0.194740
vt 0.835167 0.075099
vt 0.041588 0.380610
vt 0.857003 0.050853
vt 0.249958 0.223918
vt 0.030344 0.010400
vt 0.152781 0.387552
vt 0.028952 0.194665
vt 0.250284 0.562316
vt 0.026652 0.390653
vt 0.042113 0.007859
vt 0.968749 0.387620
vt 0.038755 0.192311
vt 0.228885 0.224358
vt 0.050713 0.577434
vt 0.953663 0.208268
vt 0.009230 0.397261
vt 0.127390 0.401891
vt 0.218564 0.574796
vt 0.009689 0.196732
vt 0.987254 0.389987
vt 0.183205 0.525872
vt 0.979520 0.186736
vt 0.061702 0.378082
vt 0.434643 0.569881
vt 0.068778 0.009348
vt 0.074257 0.590103
vt 0.680788 0.018105
vt 0.683096 0.027592
vt 0.427794 0.562539
vt 0.653936 0.034541
vt 0.013730 0.006075
vt 0.175759 0.541320
vt 0.402072 0.584644
vt 0.978570 0.385644
vt 0.255019 0.232524
vn 0.499996 -0.806822 -0.314710
vn 0.499996 -0.806822 -0.314710
vn 0.499996 -0.806822 -0.314710
vn 0.499996 -0.806822 -0.314710
vn -0.043430 0.037629 -0.998348
vn -0.043430 0.037629 -0.998348
vn -0.043430 0.037629 -0.998348
vn -0.043430 0.037629 -0.998348
vn -0.851825 0.163521 -0.497649
vn -0.851825 0.163521 -0.497649
vn -0.851825 0.163521 -0.497649
vn -0.851825 0.163521 -0.497649
vn -0.832880 0.232467 0.502264
vn -0.832880 0.232467 0.502264
vn -0.832880 0.232467 0.502264
vn -0.832880 0.232467 0.502264
vn -0.000549 0.134917 0.990857
vn -0.000549 0.134917 0.990857
vn -0.000549 0.134917 0.990857
vn -0.000549 0.134917 0.990857
vn 0.516376 -0.787328 0.336853
vn 0.516376 -0.787328 0.336853
vn 0.516376 -0.787328 0.336853
vn 0.516376 -0.787328 0.336853
vn -0.863495 -0.497022 0.085709
vn -0.783606 -0.595488 0.177077
vn -0.659637 -0.716710 0.226287
vn -0.858700 -0.505070 0.086823
vn 0.754311 0.619732 -0.216674
vn 0.853427 0.511960 -0.097774
vn 0.849874 0.517975 -0.097041
vn 0.620194 0.742626 -0.252718
vn -0.345952 -0.934839 0.079960
vn -0.345329 -0.935366 0.076412
vn 0.344109 0.933967 -0.096410
vn 0.344356 0.933670 -0.098379
vn -0.283543 -0.953619 -0.101062
vn -0.283761 -0.953532 -0.101270
vn 0.289317 0.952145 0.098569
vn 0.289608 0.952045 0.098679
vn -0.244813 -0.962096 -0.120160
vn -0.243679 -0.962105 -0.122374
vn 0.239527 0.962431 0.127883
vn 0.237396 0.962593 0.130605
vn 0.490796 0.869608 0.053865
vn 0.569152 0.822063 0.016696
vn -0.519916 -0.853785 -0.027199
vn -0.588288 -0.808587 0.010212
s off
g polySurface3
usemtl initialShadingGroup
f 61/121/133 62/109/134 63/132/135 64/111/136
f 63/132/137 65/130/138 66/141/139 64/111/140
f 65/140/141 67/128/142 68/116/143 66/114/144
f 67/128/145 69/125/146 70/118/147 68/116/148
f 71/135/149 70/118/150 69/125/151 72/123/152
f 72/134/153 62/109/154 61/121/155 71/119/156
s 1
f 50/98/157 51/99/158 63/110/159 62/124/160
s 2
f 52/100/161 49/97/162 61/112/163 64/131/164
s 1
f 51/99/158 53/101/165 65/139/166 63/110/159
s 2
f 54/143/167 52/100/161 64/131/164 66/129/168
s 1
f 53/144/165 55/103/169 67/115/170 65/113/166
s 2
f 56/104/171 54/102/167 66/142/168 68/127/172
s 1
f 55/103/169 57/105/173 69/117/174 67/115/170
s 2
f 58/106/175 56/104/171 68/127/172 70/126/176
f 60/107/177 58/106/175 70/126/176 71/122/178
s 1
f 57/105/173 59/138/179 72/133/180 69/117/174
f 59/108/179 50/98/157 62/124/160 72/120/180
s 2
f 49/97/162 60/137/177 71/136/178 61/112/163
g default
v 0.632079 -1.146199 -1.094793
v -0.632079 -1.146199 -1.094793
v -1.264158 -1.146199 -0.000000
v -0.632079 -1.146199 1.094793
v 0.632079 -1.146199 1.094793
v 1.264158 -1.146199 0.000000
v 0.261573 1.853301 -0.453058
v -0.261573 1.853301 -0.453058
v -0.523147 1.853301 -0.000000
v -0.261573 1.853301 0.453058
v 0.261573 1.853301 0.453058
v 0.523147 1.853301 -0.000000
v 0.000000 -1.927351 0.000000
v 0.000000 2.291320 0.000000
vt 0.360035 0.950896
vt 0.456000 0.778250
vt 0.384320 0.594190
vt 0.014379 0.663339
vt 0.014024 0.860863
vt 0.165873 0.987189
vt 0.310067 0.009905
vt 0.391806 0.009326
vt 0.393781 0.206004
vt 0.312046 0.207066
vt 0.253584 0.149936
vt 0.252764 0.068198
vt 0.224343 0.762479
vt 0.351634 0.108078
vt 0.907599 0.410586
vt 0.473651 0.622124
vt 0.961549 0.989289
vt 0.495978 0.861609
vt 0.500400 0.699366
vt 0.507987 0.780755
vt 0.972235 0.597236
vt 0.990570 0.793908
vt 0.449929 0.066801
vt 0.484955 0.011611
vt 0.800380 0.244694
vt 0.656744 0.109103
vt 0.166681 0.537560
vt 0.429281 0.553474
vt 0.369840 0.497362
vt 0.298749 0.457017
vn 0.000000 0.209213 -0.977870
vn 0.000000 0.209213 -0.977870
vn 0.000000 0.209213 -0.977870
vn 0.000000 0.209213 -0.977870
vn -0.846860 0.209213 -0.488935
vn -0.846860 0.209213 -0.488935
vn -0.846860 0.209213 -0.488935
vn -0.846860 0.209213 -0.488935
vn -0.846861 0.209213 0.488935
vn -0.846861 0.209213 0.488935
vn -0.846860 0.209213 0.488935
vn -0.846860 0.209213 0.488935
vn 0.000000 0.209213 0.977870
vn 0.000000 0.209213 0.977870
vn 0.000000 0.209213 0.977870
vn 0.000000 0.209213 0.977870
vn 0.846860 0.209213 0.488935
vn 0.846860 0.209213 0.488935
vn 0.846860 0.209213 0.488935
vn 0.846860 0.209213 0.488935
vn 0.846861 0.209213 -0.488935
vn 0.846860 0.209213 -0.488935
vn 0.846860 0.209213 -0.488935
vn 0.846860 0.209213 -0.488935
vn -0.262831 -0.850693 -0.455237
vn 0.262831 -0.850693 -0.455237
vn -0.000000 -1.000000 -0.000000
vn -0.525663 -0.850693 -0.000000
vn -0.262831 -0.850693 0.455237
vn 0.262831 -0.850693 0.455237
vn 0.525663 -0.850693 0.000000
vn 0.320984 0.766732 -0.555960
vn -0.320984 0.766732 -0.555960
vn 0.000000 1.000000 -0.000000
vn -0.641967 0.766732 -0.000000
vn -0.320984 0.766732 0.555960
vn 0.320984 0.766732 0.555960
vn 0.641967 0.766732 0.000000
s off
g pCylinder1
usemtl initialShadingGroup
f 73/165/181 74/166/182 80/164/183 79/163/184
f 74/166/185 75/161/186 81/162/187 80/164/188
f 75/168/189 76/170/190 82/173/191 81/174/192
f 76/170/193 77/169/194 83/172/195 82/173/196
f 77/169/197 78/159/198 84/160/199 83/172/200
f 78/159/201 73/165/202 79/163/203 84/160/204
s 1
f 74/146/205 73/145/206 85/157/207
f 75/147/208 74/146/205 85/157/207
f 76/148/209 75/171/208 85/157/207
f 77/149/210 76/148/209 85/157/207
f 78/150/211 77/149/210 85/157/207
f 73/145/206 78/150/211 85/157/207
s 2
f 79/151/212 80/152/213 86/158/214
f 80/152/213 81/167/215 86/158/214
f 81/153/215 82/154/216 86/158/214
f 82/154/216 83/155/217 86/158/214
f 83/155/217 84/156/218 86/158/214
f 84/156/218 79/151/212 86/158/214
