# Blender v2.80 (sub 75) OBJ File: 'grassWeed2.blend'
# www.blender.org
mtllib grassWeed3.mtl
o Plane.004_Plane.056
v 0.199362 -0.034770 0.162324
v -0.170903 0.039624 -0.191116
v -0.010845 1.037693 0.608278
v -0.381110 1.112088 0.254838
v 0.187725 0.547347 0.297043
v -0.182540 0.621742 -0.056397
v -0.296104 0.002454 0.023211
v 0.296104 0.002454 0.023211
v -0.296104 1.251256 -0.493290
v 0.296104 1.251256 -0.493290
v -0.296104 0.677692 -0.087265
v 0.296104 0.677693 -0.087265
v 0.121490 0.014277 -0.228778
v -0.151283 0.006838 0.210642
v 0.856344 0.809685 0.240854
v 0.583571 0.802246 0.680274
v 0.404976 0.507033 -0.044460
v 0.132203 0.499594 0.394960
v 0.075824 0.014277 0.247689
v -0.041931 0.006838 -0.255926
v -0.775906 0.809685 0.435092
v -0.893662 0.802246 -0.068523
v -0.254974 0.507033 0.317758
v -0.372730 0.499594 -0.185857
v 0.246003 -0.019197 0.080107
v -0.230467 0.037518 -0.113052
v 0.029075 0.834480 0.865866
v -0.447395 0.891194 0.672708
v 0.185805 0.494536 0.379441
v -0.290665 0.551250 0.186283
v -0.186937 0.024839 -0.178160
v 0.156627 -0.023971 0.205418
v 0.150625 1.144542 -0.338027
v 0.494189 1.095732 0.045550
v -0.114630 0.617969 -0.167449
v 0.228935 0.569159 0.216128
v -0.181825 0.023892 -0.124131
v 0.164513 -0.005579 0.148136
v 0.318028 0.693143 -0.687531
v 0.664366 0.663673 -0.415264
v 0.021293 0.440400 -0.337425
v 0.367631 0.410930 -0.065158
v -0.214603 0.037124 0.040088
v 0.219725 -0.026589 -0.007315
v -0.156648 0.861272 -0.536619
v 0.277681 0.797558 -0.584022
v -0.166214 0.508167 -0.149670
v 0.268114 0.444453 -0.197073
v -0.082761 -0.027774 0.203516
v 0.109788 0.042757 -0.187505
v -0.743592 0.707984 0.010820
v -0.551042 0.778516 -0.380201
v -0.336873 0.412183 0.157743
v -0.144324 0.482715 -0.233278
vt 0.483560 0.488496
vt 0.614871 0.488496
vt 0.614871 0.614784
vt 0.483560 0.614784
vt 0.483560 0.362208
vt 0.614872 0.362208
vt 0.483560 0.488496
vt 0.614871 0.488496
vt 0.614871 0.614784
vt 0.483560 0.614784
vt 0.483560 0.362208
vt 0.614872 0.362208
vt 0.483560 0.488496
vt 0.614871 0.488496
vt 0.614871 0.614784
vt 0.483560 0.614784
vt 0.483560 0.362208
vt 0.614872 0.362208
vt 0.483560 0.488496
vt 0.614871 0.488496
vt 0.614871 0.614784
vt 0.483560 0.614784
vt 0.483560 0.362208
vt 0.614872 0.362208
vt 0.483560 0.488496
vt 0.614871 0.488496
vt 0.614871 0.614784
vt 0.483560 0.614784
vt 0.483560 0.362208
vt 0.614872 0.362208
vt 0.483560 0.488496
vt 0.614871 0.488496
vt 0.614871 0.614784
vt 0.483560 0.614784
vt 0.483560 0.362208
vt 0.614872 0.362208
vt 0.483560 0.488496
vt 0.614871 0.488496
vt 0.614871 0.614784
vt 0.483560 0.614784
vt 0.483560 0.362208
vt 0.614872 0.362208
vt 0.483560 0.488496
vt 0.614871 0.488496
vt 0.614871 0.614784
vt 0.483560 0.614784
vt 0.483560 0.362208
vt 0.614872 0.362208
vt 0.483560 0.488496
vt 0.614871 0.488496
vt 0.614871 0.614784
vt 0.483560 0.614784
vt 0.483560 0.362208
vt 0.614872 0.362208
vn 0.6757 0.3893 -0.6259
vn 0.6188 0.5840 -0.5253
vn 0.6980 0.1747 -0.6944
vn 0.0000 0.3793 0.9252
vn 0.0000 0.5778 0.8162
vn 0.0000 0.1614 0.9869
vn -0.5801 0.7366 -0.3476
vn -0.4256 0.8698 -0.2494
vn -0.7049 0.5656 -0.4280
vn 0.6560 0.7366 -0.1643
vn 0.4773 0.8698 -0.1245
vn 0.8011 0.5656 -0.1957
vn 0.3436 0.6796 -0.6481
vn 0.2937 0.8253 -0.4822
vn 0.3759 0.4990 -0.7808
vn -0.6915 0.2991 0.6575
vn -0.6099 0.5051 0.6106
vn -0.7377 0.0778 0.6706
vn -0.3738 0.7425 0.5558
vn -0.2528 0.8734 0.4162
vn -0.4755 0.5735 0.6670
vn 0.1702 0.5543 0.8147
vn 0.1789 0.7245 0.6656
vn 0.1528 0.3557 0.9220
vn 0.6182 0.6620 0.4238
vn 0.4552 0.8097 0.3702
vn 0.7494 0.4803 0.4557
usemtl Material.001
s 1
f 5/1/1 6/2/1 4/3/2 3/4/2
f 1/5/3 2/6/3 6/2/1 5/1/1
f 11/7/4 12/8/4 10/9/5 9/10/5
f 7/11/6 8/12/6 12/8/4 11/7/4
f 17/13/7 18/14/7 16/15/8 15/16/8
f 13/17/9 14/18/9 18/14/7 17/13/7
f 23/19/10 24/20/10 22/21/11 21/22/11
f 19/23/12 20/24/12 24/20/10 23/19/10
f 29/25/13 30/26/13 28/27/14 27/28/14
f 25/29/15 26/30/15 30/26/13 29/25/13
f 35/31/16 36/32/16 34/33/17 33/34/17
f 31/35/18 32/36/18 36/32/16 35/31/16
f 41/37/19 42/38/19 40/39/20 39/40/20
f 37/41/21 38/42/21 42/38/19 41/37/19
f 47/43/22 48/44/22 46/45/23 45/46/23
f 43/47/24 44/48/24 48/44/22 47/43/22
f 53/49/25 54/50/25 52/51/26 51/52/26
f 49/53/27 50/54/27 54/50/25 53/49/25
