# Blender v2.80 (sub 75) OBJ File: 'grassWeed1.blend'
# www.blender.org
mtllib grassWeed2.mtl
o Plane.017_Plane.050
v -0.253896 -0.137272 -0.593196
v 0.631850 -0.137272 0.495692
v -0.253896 2.438996 -0.593196
v 0.631850 2.438996 0.495692
v -0.139513 1.191467 -0.743280
v 0.746234 1.191467 0.345609
v -0.095304 -0.082734 -0.135066
v -0.849962 -0.082734 -0.565319
v -0.095304 1.511673 -0.135066
v -0.849962 1.511673 -0.565319
v -0.127743 0.739599 -0.022877
v -0.882401 0.739599 -0.453130
v 0.336727 -0.068246 -0.803612
v -1.163330 -0.068247 0.139661
v 0.336726 1.526161 -0.803612
v -1.163330 1.526161 0.139661
v 0.336726 0.728957 -0.803612
v -1.163330 0.728957 0.139661
v 0.192760 -0.087778 0.463851
v -1.019363 -0.087778 -1.127802
v 0.192760 1.712379 0.463851
v -1.019363 1.712379 -1.127802
v 0.192760 0.812301 0.463851
v -1.019363 0.812301 -1.127802
v -1.738287 -0.053563 -0.132448
v -0.312940 -0.053563 -1.536366
v -1.738287 1.746593 -0.132448
v -0.312939 1.746593 -1.536366
v -1.738287 0.846515 -0.132448
v -0.312940 0.846515 -1.536366
v -1.990772 -0.076372 -1.027009
v -0.027607 -0.076373 -0.641545
v -1.990772 1.723784 -1.027009
v -0.027607 1.723784 -0.641545
v -1.990772 0.823706 -1.027009
v -0.027607 0.823706 -0.641545
v -1.253880 -0.411441 -1.822530
v -0.865597 0.287357 0.011460
v -1.429140 1.274783 -2.427920
v -1.040858 1.973581 -0.593930
v -1.341510 0.431671 -2.125225
v -0.953228 1.130469 -0.291235
v -2.129436 0.037229 -0.042489
v -0.213051 0.153795 -0.605056
v -2.197187 1.830591 0.098311
v -0.280802 1.947158 -0.464256
v -2.163311 0.933910 0.027911
v -0.246927 1.050477 -0.534656
v -0.747604 -0.008631 -1.113378
v 0.263738 -0.008631 -0.483462
v -0.747604 2.178210 -1.113378
v 0.263738 2.178210 -0.483462
v -0.697163 1.119256 -1.265407
v 0.314179 1.119256 -0.635491
v -0.158798 -0.124335 -1.548298
v -0.498129 -0.124335 -0.289461
v -0.158799 2.268617 -1.548298
v -0.498129 2.268617 -0.289461
v 0.016415 1.109857 -1.543635
v -0.322915 1.109857 -0.284798
v 0.960174 -0.072794 0.221747
v 0.169846 -0.072794 0.582314
v 0.960174 1.521613 0.221747
v 0.169846 1.521613 0.582313
v 1.032211 0.749539 0.313668
v 0.241882 0.749539 0.674234
v 0.670501 -0.058307 -0.519665
v 0.558466 -0.058307 1.248775
v 0.670501 1.536101 -0.519665
v 0.558466 1.536101 1.248775
v 0.670501 0.738897 -0.519665
v 0.558466 0.738897 1.248775
v 1.614464 -0.077838 0.338310
v -0.385497 -0.077838 0.390799
v 1.614464 1.722319 0.338310
v -0.385497 1.722319 0.390799
v 1.614464 0.822241 0.338310
v -0.385497 0.822241 0.390799
v 0.001509 -0.043624 1.556050
v -0.303816 -0.043624 -0.421165
v 0.001509 1.756533 1.556050
v -0.303815 1.756533 -0.421165
v 0.001509 0.856455 1.556050
v -0.303816 0.856455 -0.421165
v -0.871799 -0.066433 1.237739
v 0.588912 -0.066433 -0.129348
v -0.871799 1.733724 1.237739
v 0.588912 1.733724 -0.129348
v -0.871799 0.833646 1.237739
v 0.588912 0.833646 -0.129348
v -1.086195 -0.401501 0.174771
v 0.628580 0.297297 0.932288
v -1.679770 1.284723 -0.037081
v 0.035005 1.983521 0.720436
v -1.382982 0.441611 0.068845
v 0.331792 1.140409 0.826362
v -0.154254 0.047169 1.925952
v 0.510066 0.163735 0.042421
v -0.079658 1.840531 2.063248
v 0.584662 1.957098 0.179717
v -0.116956 0.943850 1.994600
v 0.547364 1.060416 0.111069
v -0.315029 -0.132939 0.216273
v 0.983681 -0.132939 -0.316249
v -0.315029 2.443330 0.216273
v 0.983681 2.443330 -0.316249
v -0.425564 1.195800 0.063333
v 0.873145 1.195800 -0.469189
v -0.702027 0.029896 0.939157
v -1.270486 0.146462 -0.975488
v -0.561019 1.823258 1.006475
v -1.129478 1.939825 -0.908171
v -0.631523 0.926577 0.972816
v -1.199982 1.043144 -0.941829
vt 0.622176 0.486379
vt 0.725068 0.486379
vt 0.725068 0.593202
vt 0.622176 0.593202
vt 0.622176 0.379557
vt 0.725068 0.379557
vt 0.622176 0.486379
vt 0.725068 0.486379
vt 0.725068 0.593202
vt 0.622176 0.593202
vt 0.622176 0.379557
vt 0.725068 0.379557
vt 0.733046 0.489238
vt 0.902534 0.489238
vt 0.902535 0.600086
vt 0.733046 0.600087
vt 0.733046 0.378390
vt 0.902534 0.378390
vt 0.733046 0.489238
vt 0.902534 0.489238
vt 0.902535 0.600086
vt 0.733046 0.600087
vt 0.733046 0.378390
vt 0.902534 0.378390
vt 0.733046 0.489238
vt 0.902534 0.489238
vt 0.902535 0.600086
vt 0.733046 0.600087
vt 0.733046 0.378390
vt 0.902534 0.378390
vt 0.733046 0.489238
vt 0.902534 0.489238
vt 0.902535 0.600086
vt 0.733046 0.600087
vt 0.733046 0.378390
vt 0.902534 0.378390
vt 0.733046 0.489238
vt 0.902534 0.489238
vt 0.902535 0.600086
vt 0.733046 0.600087
vt 0.733046 0.378390
vt 0.902534 0.378390
vt 0.733046 0.489238
vt 0.902534 0.489238
vt 0.902535 0.600086
vt 0.733046 0.600087
vt 0.733046 0.378390
vt 0.902534 0.378390
vt 0.622176 0.486379
vt 0.725068 0.486379
vt 0.725068 0.593202
vt 0.622176 0.593202
vt 0.622176 0.379557
vt 0.725068 0.379557
vt 0.622176 0.486379
vt 0.725068 0.486379
vt 0.725068 0.593202
vt 0.622176 0.593202
vt 0.622176 0.379557
vt 0.725068 0.379557
vt 0.622176 0.486379
vt 0.725068 0.486379
vt 0.725068 0.593202
vt 0.622176 0.593202
vt 0.622176 0.379557
vt 0.725068 0.379557
vt 0.733046 0.489238
vt 0.902534 0.489238
vt 0.902535 0.600086
vt 0.733046 0.600087
vt 0.733046 0.378390
vt 0.902534 0.378390
vt 0.733046 0.489238
vt 0.902534 0.489238
vt 0.902535 0.600086
vt 0.733046 0.600087
vt 0.733046 0.378390
vt 0.902534 0.378390
vt 0.733046 0.489238
vt 0.902534 0.489238
vt 0.902535 0.600086
vt 0.733046 0.600087
vt 0.733046 0.378390
vt 0.902534 0.378390
vt 0.733046 0.489238
vt 0.902534 0.489238
vt 0.902535 0.600086
vt 0.733046 0.600087
vt 0.733046 0.378390
vt 0.902534 0.378390
vt 0.733046 0.489238
vt 0.902534 0.489238
vt 0.902535 0.600086
vt 0.733046 0.600087
vt 0.733046 0.378390
vt 0.902534 0.378390
vt 0.733046 0.489238
vt 0.902534 0.489238
vt 0.902535 0.600086
vt 0.733046 0.600087
vt 0.733046 0.378390
vt 0.902534 0.378390
vt 0.622176 0.486379
vt 0.725068 0.486379
vt 0.725068 0.593202
vt 0.622176 0.593202
vt 0.622176 0.379557
vt 0.725068 0.379557
vt 0.733046 0.489238
vt 0.902534 0.489238
vt 0.902535 0.600086
vt 0.733046 0.600087
vt 0.733046 0.378390
vt 0.902534 0.378390
vn -0.7757 -0.0043 0.6310
vn -0.7757 -0.0045 0.6310
vn -0.7675 -0.1455 0.6243
vn -0.7685 0.1368 0.6251
vn 0.4953 -0.0043 -0.8687
vn 0.4953 -0.0045 -0.8687
vn 0.4900 -0.1455 -0.8595
vn 0.4906 0.1368 -0.8606
vn -0.5323 0.0000 -0.8465
vn 0.7956 0.0000 -0.6059
vn 0.7017 0.0000 0.7124
vn -0.1927 0.0000 0.9813
vn -0.9761 -0.0240 0.2158
vn 0.2847 -0.0643 0.9565
vn -0.5287 -0.0043 0.8488
vn -0.5287 -0.0045 0.8488
vn -0.5231 -0.1455 0.8398
vn -0.5237 0.1368 0.8408
vn -0.9655 -0.0043 -0.2603
vn -0.9655 -0.0045 -0.2603
vn -0.9553 -0.1455 -0.2575
vn -0.9565 0.1368 -0.2578
vn -0.4151 -0.0043 -0.9098
vn -0.4151 -0.0045 -0.9098
vn -0.4106 -0.1455 -0.9001
vn -0.4111 0.1368 -0.9012
vn -0.9980 0.0000 -0.0632
vn -0.0262 0.0000 -0.9996
vn 0.9883 0.0000 -0.1526
vn 0.6833 0.0000 0.7301
vn -0.3958 -0.0240 0.9180
vn 0.9423 -0.0643 0.3284
vn 0.3794 -0.0043 0.9252
vn 0.3794 -0.0045 0.9252
vn 0.3753 -0.1455 0.9154
vn 0.3758 0.1368 0.9165
vn 0.9556 -0.0643 -0.2876
usemtl Material.001
s 1
f 5/1/1 6/2/2 4/3/3 3/4/3
f 1/5/4 2/6/4 6/2/2 5/1/1
f 11/7/5 12/8/6 10/9/7 9/10/7
f 7/11/8 8/12/8 12/8/6 11/7/5
f 17/13/9 18/14/9 16/15/9 15/16/9
f 13/17/9 14/18/9 18/14/9 17/13/9
f 23/19/10 24/20/10 22/21/10 21/22/10
f 19/23/10 20/24/10 24/20/10 23/19/10
f 29/25/11 30/26/11 28/27/11 27/28/11
f 25/29/11 26/30/11 30/26/11 29/25/11
f 35/31/12 36/32/12 34/33/12 33/34/12
f 31/35/12 32/36/12 36/32/12 35/31/12
f 41/37/13 42/38/13 40/39/13 39/40/13
f 37/41/13 38/42/13 42/38/13 41/37/13
f 47/43/14 48/44/14 46/45/14 45/46/14
f 43/47/14 44/48/14 48/44/14 47/43/14
f 53/49/15 54/50/16 52/51/17 51/52/17
f 49/53/18 50/54/18 54/50/16 53/49/15
f 59/55/19 60/56/20 58/57/21 57/58/21
f 55/59/22 56/60/22 60/56/20 59/55/19
f 65/61/23 66/62/24 64/63/25 63/64/25
f 61/65/26 62/66/26 66/62/24 65/61/23
f 71/67/27 72/68/27 70/69/27 69/70/27
f 67/71/27 68/72/27 72/68/27 71/67/27
f 77/73/28 78/74/28 76/75/28 75/76/28
f 73/77/28 74/78/28 78/74/28 77/73/28
f 83/79/29 84/80/29 82/81/29 81/82/29
f 79/83/29 80/84/29 84/80/29 83/79/29
f 89/85/30 90/86/30 88/87/30 87/88/30
f 85/89/30 86/90/30 90/86/30 89/85/30
f 95/91/31 96/92/31 94/93/31 93/94/31
f 91/95/31 92/96/31 96/92/31 95/91/31
f 101/97/32 102/98/32 100/99/32 99/100/32
f 97/101/32 98/102/32 102/98/32 101/97/32
f 107/103/33 108/104/34 106/105/35 105/106/35
f 103/107/36 104/108/36 108/104/34 107/103/33
f 113/109/37 114/110/37 112/111/37 111/112/37
f 109/113/37 110/114/37 114/110/37 113/109/37
