# Blender v2.80 (sub 75) OBJ File: 'greenFern.blend'
# www.blender.org
mtllib greenFern.mtl
o Cube_Cube.004
v -0.030436 0.845072 -0.411689
v -0.039096 0.845961 -0.409291
v -0.036596 0.850683 -0.402011
v -0.027935 0.849794 -0.404409
v -0.039070 0.851908 -0.414997
v -0.030137 0.851248 -0.416140
v -0.028870 0.857738 -0.409990
v -0.037803 0.858398 -0.408847
v -0.017733 -0.007284 0.004793
v -0.008669 0.004643 0.032918
v 0.021876 0.001593 0.024368
v -0.042891 1.203453 -0.844899
v -0.042393 1.206422 -0.842886
v -0.045981 1.206844 -0.842622
v -0.048638 1.051640 -0.620848
v -0.043643 1.051155 -0.621356
v -0.047943 1.055533 -0.617718
v -0.009069 0.583628 -0.255287
v -0.026752 0.585286 -0.250297
v -0.003899 0.592323 -0.239858
v -0.023095 0.619711 -0.251575
v -0.006275 0.617984 -0.256232
v -0.038953 0.841159 -0.406416
v -0.036368 0.846041 -0.398888
v -0.027413 0.845121 -0.401368
v -0.011253 0.610296 -0.271258
v -0.029999 0.840240 -0.408896
v 0.012812 -0.010334 -0.003757
v -0.012870 0.355214 -0.117558
v 0.012317 0.352894 -0.124693
v 0.005353 0.320430 -0.138656
v -0.020336 0.344879 -0.140543
v -0.048578 1.055786 -0.626952
v -0.042949 1.055051 -0.618222
v -0.043619 1.055495 -0.627745
v -0.047502 1.131675 -0.738504
v -0.047883 1.060413 -0.624949
v -0.043291 1.122083 -0.725475
v -0.042625 1.143198 -0.749048
v -0.046478 1.203875 -0.844635
v -0.046584 1.160408 -0.773594
v -0.039415 0.859815 -0.423110
v -0.038178 0.866139 -0.417097
v -0.030696 0.859173 -0.424228
v -0.029458 0.865495 -0.418213
v -0.048468 1.048099 -0.617207
v -0.043386 1.047413 -0.617534
v -0.047727 1.051316 -0.613237
v -0.026331 0.569078 -0.242917
v -0.013731 0.378795 -0.129135
v 0.010252 0.383511 -0.139413
v 0.004857 0.342405 -0.147609
v -0.008102 0.566925 -0.247863
v -0.021580 0.593990 -0.234868
v -0.002722 0.574871 -0.231453
v -0.407526 0.368915 -0.136869
v 0.297879 0.313631 -0.117987
v -0.317790 1.255802 -0.892515
v 0.387615 1.200518 -0.873632
v -0.338342 1.081712 -0.634463
v -0.359336 0.885902 -0.423481
v -0.382468 0.642063 -0.273255
v 0.322938 0.586779 -0.254372
v 0.346069 0.830617 -0.404598
v 0.367063 1.026428 -0.615581
vt 0.000000 0.000000
vt 0.000000 0.000000
vt 0.000000 0.000000
vt 0.000000 0.000000
vt 0.000000 0.000000
vt 0.000000 0.000000
vt 0.000000 0.000000
vt 0.000000 0.000000
vt 0.000000 0.000000
vt 0.000000 0.000000
vt 0.000000 0.000000
vt 0.000000 0.000000
vt 0.000000 0.000000
vt 0.000000 0.000000
vt 0.000000 0.000000
vt 0.000000 0.000000
vt 0.000000 0.000000
vt 0.000000 0.000000
vt 0.000000 0.000000
vt 0.000000 0.000000
vt 0.000000 0.000000
vt 0.000000 0.000000
vt 0.000000 0.000000
vt 0.000000 0.000000
vt 0.000000 0.000000
vt 0.000000 0.000000
vt 0.000000 0.000000
vt 0.000000 0.000000
vt 0.000000 0.000000
vt 0.000000 0.000000
vt 0.000000 0.000000
vt 0.000000 0.000000
vt 0.000000 0.000000
vt 0.000000 0.000000
vt 0.000000 0.000000
vt 0.000000 0.000000
vt 0.000000 0.000000
vt 0.000000 0.000000
vt 0.000000 0.000000
vt 0.000000 0.000000
vt 0.000000 0.000000
vt 0.000000 0.000000
vt 0.000000 0.000000
vt 0.000000 0.000000
vt 0.000000 0.000000
vt 0.000000 0.000000
vt 0.000000 0.000000
vt 0.000000 0.000000
vt 0.000000 0.000000
vt 0.000000 0.000000
vt 0.000000 0.000000
vt 0.000000 0.000000
vt 0.000000 0.000000
vt 0.000000 0.000000
vt 0.000000 0.000000
vt 0.283138 0.555591
vt 0.449870 0.555591
vt 0.449870 0.615058
vt 0.283138 0.615058
vt 0.283138 0.377191
vt 0.449870 0.377191
vt 0.449870 0.436658
vt 0.283138 0.436658
vt 0.449870 0.496124
vt 0.283138 0.496125
vn 0.4908 -0.4881 -0.7217
vn -0.8116 -0.4026 -0.4233
vn 0.6130 -0.4914 -0.6186
vn -0.8870 -0.3068 -0.3452
vn -0.5896 0.5460 0.5952
vn -0.4735 0.4912 0.7310
vn 0.7835 0.4633 0.4141
vn 0.8614 0.3336 0.3831
vn -0.4891 0.8644 -0.1166
vn 0.4949 -0.2155 -0.8418
vn -0.6475 -0.0811 -0.7577
vn 0.4933 -0.3735 -0.7856
vn -0.8874 -0.2405 -0.3931
vn 0.4808 -0.4211 -0.7690
vn 0.8718 0.3253 0.3663
vn 0.8724 0.3180 0.3711
vn -0.8754 -0.2745 -0.3979
vn 0.4803 -0.4138 -0.7733
vn -0.4838 0.4646 0.7417
vn -0.7109 -0.6903 -0.1344
vn 0.4764 -0.3227 -0.8179
vn 0.3996 -0.8012 -0.4453
vn -0.4688 0.3595 0.8068
vn -0.8814 -0.2006 -0.4276
vn 0.4851 -0.3268 -0.8111
vn -0.7973 -0.4956 -0.3445
vn 0.6151 -0.6012 -0.5100
vn -0.8199 -0.4501 -0.3536
vn 0.7752 0.5041 0.3807
vn 0.6032 -0.6604 -0.4473
vn -0.6031 0.6642 0.4418
vn -0.5922 0.6240 0.5098
vn 0.7975 0.4994 0.3384
vn 0.6033 -0.6600 -0.4477
vn -0.7975 -0.4952 -0.3446
vn -0.6032 0.6642 0.4415
vn 0.6533 0.7300 -0.2007
vn 0.5998 -0.5518 -0.5794
vn -0.7991 -0.4484 -0.4004
vn 0.7982 0.4644 0.3836
vn -0.6007 0.5679 0.5627
vn -0.6006 0.5668 0.5639
vn 0.5995 -0.5526 -0.5789
vn -0.7988 -0.4496 -0.3997
vn 0.8766 0.2555 0.4079
vn 0.8753 0.2327 0.4238
vn -0.8782 -0.2174 -0.4260
vn 0.4761 -0.3350 -0.8130
vn -0.4666 0.4196 0.7786
vn -0.4833 0.4572 0.7466
vn 0.8644 0.2953 0.4068
vn -0.3813 -0.2567 0.8881
vn 0.7291 -0.3676 0.5772
vn -0.4780 0.3731 0.7951
vn 0.8766 0.2557 0.4078
vn 0.0445 0.7806 0.6234
vn 0.0497 0.8261 0.5613
vn 0.0110 0.4459 0.8950
vn 0.0146 0.4850 0.8744
vn 0.0288 0.6326 0.7739
usemtl Material
s 1
f 1/1/1 5/2/2 6/3/3
f 2/4/4 8/5/5 5/2/2
f 3/6/6 7/7/7 8/5/5
f 4/8/8 6/3/3 7/7/7
f 14/9/9 12/10/10 40/11/11
f 18/12/12 19/13/13 26/14/14
f 26/14/14 25/15/15 22/16/16
f 23/17/17 27/18/18 26/14/14
f 23/17/17 1/1/1 27/18/18
f 24/19/19 2/4/4 23/17/17
f 24/19/19 4/8/8 3/6/6
f 27/18/18 4/8/8 25/15/15
f 9/20/20 31/21/21 28/22/22
f 29/23/23 32/24/24 9/20/20
f 31/21/21 32/24/24 52/25/25
f 33/26/26 16/27/27 15/28/28
f 34/29/29 16/27/27 35/30/30
f 37/31/31 15/28/28 17/32/32
f 39/33/33 37/31/31 34/29/29
f 38/34/34 39/33/33 35/30/30
f 36/35/35 38/34/34 33/26/26
f 41/36/36 36/35/35 37/31/31
f 39/33/33 38/34/34 12/10/10
f 13/37/37 41/36/36 39/33/33
f 40/11/11 12/10/10 36/35/35
f 14/9/9 40/11/11 41/36/36
f 44/38/38 5/2/2 42/39/39
f 45/40/40 6/3/3 44/38/38
f 45/40/40 8/5/5 7/7/7
f 43/41/41 5/2/2 8/5/5
f 42/39/39 43/41/41 48/42/42
f 47/43/43 45/40/40 44/38/38
f 48/42/42 45/40/40 34/29/29
f 47/43/43 42/39/39 46/44/44
f 16/27/27 46/44/44 15/28/28
f 16/27/27 34/29/29 47/43/43
f 15/28/28 48/42/42 17/32/32
f 52/25/25 51/45/45 30/46/46
f 49/47/47 53/48/48 52/25/25
f 54/49/49 19/13/13 49/47/47
f 1/1/1 2/4/4 5/2/2
f 2/4/4 3/6/6 8/5/5
f 3/6/6 4/8/8 7/7/7
f 4/8/8 1/1/1 6/3/3
f 21/50/50 54/49/49 20/51/51 22/16/16
f 14/9/9 13/37/37 12/10/10
f 19/13/13 54/49/49 21/50/50
f 22/16/16 20/51/51 18/12/12 26/14/14
f 23/17/17 19/13/13 21/50/50 24/19/19
f 26/14/14 19/13/13 23/17/17
f 24/19/19 21/50/50 22/16/16 25/15/15
f 30/46/46 29/23/23 10/52/52 11/53/53
f 26/14/14 27/18/18 25/15/15
f 23/17/17 2/4/4 1/1/1
f 24/19/19 3/6/6 2/4/4
f 24/19/19 25/15/15 4/8/8
f 27/18/18 1/1/1 4/8/8
f 10/52/52 29/23/23 9/20/20
f 31/21/21 30/46/46 11/53/53 28/22/22
f 50/54/54 49/47/47 32/24/24 29/23/23
f 9/20/20 32/24/24 31/21/21
f 30/46/46 31/21/21 52/25/25
f 33/26/26 35/30/30 16/27/27
f 37/31/31 17/32/32 34/29/29
f 37/31/31 33/26/26 15/28/28
f 35/30/30 39/33/33 34/29/29
f 38/34/34 35/30/30 33/26/26
f 37/31/31 36/35/35 33/26/26
f 41/36/36 37/31/31 39/33/33
f 12/10/10 38/34/34 36/35/35
f 13/37/37 39/33/33 12/10/10
f 40/11/11 36/35/35 41/36/36
f 13/37/37 14/9/9 41/36/36
f 44/38/38 6/3/3 5/2/2
f 45/40/40 7/7/7 6/3/3
f 45/40/40 43/41/41 8/5/5
f 43/41/41 42/39/39 5/2/2
f 45/40/40 48/42/42 43/41/41
f 47/43/43 44/38/38 42/39/39
f 34/29/29 45/40/40 47/43/43
f 46/44/44 42/39/39 48/42/42
f 16/27/27 47/43/43 46/44/44
f 9/20/20 28/22/22 11/53/53 10/52/52
f 34/29/29 17/32/32 48/42/42
f 15/28/28 46/44/44 48/42/42
f 32/24/24 49/47/47 52/25/25
f 51/45/45 50/54/54 29/23/23 30/46/46
f 54/49/49 50/54/54 51/45/45 55/55/55
f 49/47/47 50/54/54 54/49/49
f 55/55/55 51/45/45 52/25/25 53/48/48
f 18/12/12 53/48/48 49/47/47 19/13/13
f 18/12/12 20/51/51 55/55/55 53/48/48
f 54/49/49 55/55/55 20/51/51
usemtl Material.001
f 60/56/56 65/57/56 59/58/57 58/59/57
f 56/60/58 57/61/58 63/62/59 62/63/59
f 62/63/59 63/62/59 64/64/60 61/65/60
f 61/65/60 64/64/60 65/57/56 60/56/56
o Cube.001_Cube.005
v 0.290508 0.537790 -0.006238
v 0.289301 0.538170 -0.010428
v 0.284615 0.541495 -0.009772
v 0.285821 0.541116 -0.005581
v 0.293157 0.541890 -0.010198
v 0.293546 0.541699 -0.005957
v 0.289685 0.546109 -0.005844
v 0.289296 0.546300 -0.010085
v -0.002637 -0.005141 -0.008403
v -0.020888 0.003587 -0.006027
v -0.016572 0.002302 0.008757
v 0.581322 0.759355 0.006258
v 0.580077 0.761350 0.006318
v 0.580052 0.761524 0.004623
v 0.432267 0.666190 -0.006512
v 0.432396 0.666012 -0.004146
v 0.430315 0.668820 -0.006442
v 0.181364 0.372500 -0.000416
v 0.178836 0.373175 -0.008974
v 0.171401 0.378693 0.000939
v 0.180445 0.395619 -0.007841
v 0.182788 0.394882 0.000297
v 0.287305 0.535126 -0.010438
v 0.282458 0.538565 -0.009759
v 0.283706 0.538172 -0.005426
v 0.192508 0.389359 -0.001011
v 0.288552 0.534734 -0.006105
v 0.001680 -0.006426 0.006380
v 0.086147 0.227448 -0.005861
v 0.089766 0.226513 0.006330
v 0.098212 0.204860 0.004499
v 0.101049 0.219931 -0.007820
v 0.436331 0.668733 -0.006209
v 0.430442 0.668643 -0.004077
v 0.436652 0.668671 -0.003848
v 0.510619 0.715261 -0.000689
v 0.435130 0.671810 -0.006088
v 0.501760 0.709484 0.000700
v 0.517577 0.722628 0.001976
v 0.581296 0.759529 0.004563
v 0.534094 0.733074 0.001226
v 0.298639 0.546813 -0.010038
v 0.294864 0.551110 -0.009928
v 0.299021 0.546628 -0.005899
v 0.295244 0.550924 -0.005788
v 0.429806 0.663987 -0.006577
v 0.429809 0.663684 -0.004177
v 0.427290 0.666199 -0.006521
v 0.173605 0.362842 -0.008901
v 0.094311 0.242452 -0.006036
v 0.100200 0.245974 0.005644
v 0.104620 0.218898 0.004373
v 0.176070 0.361864 -0.000081
v 0.168873 0.379373 -0.007618
v 0.165444 0.367600 0.001329
v 0.112013 0.221605 -0.187199
v 0.074217 0.211110 0.142358
v 0.620780 0.781247 -0.111026
v 0.582984 0.770752 0.218530
v 0.449999 0.674087 -0.134025
v 0.309139 0.551610 -0.154081
v 0.206441 0.396332 -0.170804
v 0.168644 0.385837 0.158752
v 0.271342 0.541115 0.175475
v 0.412202 0.663591 0.195531
vt 0.000000 0.000000
vt 0.000000 0.000000
vt 0.000000 0.000000
vt 0.000000 0.000000
vt 0.000000 0.000000
vt 0.000000 0.000000
vt 0.000000 0.000000
vt 0.000000 0.000000
vt 0.000000 0.000000
vt 0.000000 0.000000
vt 0.000000 0.000000
vt 0.000000 0.000000
vt 0.000000 0.000000
vt 0.000000 0.000000
vt 0.000000 0.000000
vt 0.000000 0.000000
vt 0.000000 0.000000
vt 0.000000 0.000000
vt 0.000000 0.000000
vt 0.000000 0.000000
vt 0.000000 0.000000
vt 0.000000 0.000000
vt 0.000000 0.000000
vt 0.000000 0.000000
vt 0.000000 0.000000
vt 0.000000 0.000000
vt 0.000000 0.000000
vt 0.000000 0.000000
vt 0.000000 0.000000
vt 0.000000 0.000000
vt 0.000000 0.000000
vt 0.000000 0.000000
vt 0.000000 0.000000
vt 0.000000 0.000000
vt 0.000000 0.000000
vt 0.000000 0.000000
vt 0.000000 0.000000
vt 0.000000 0.000000
vt 0.000000 0.000000
vt 0.000000 0.000000
vt 0.000000 0.000000
vt 0.000000 0.000000
vt 0.000000 0.000000
vt 0.000000 0.000000
vt 0.000000 0.000000
vt 0.000000 0.000000
vt 0.000000 0.000000
vt 0.000000 0.000000
vt 0.000000 0.000000
vt 0.000000 0.000000
vt 0.000000 0.000000
vt 0.000000 0.000000
vt 0.000000 0.000000
vt 0.000000 0.000000
vt 0.000000 0.000000
vt 0.283138 0.555591
vt 0.449870 0.555591
vt 0.449870 0.615058
vt 0.283138 0.615058
vt 0.283138 0.377191
vt 0.449870 0.377191
vt 0.449870 0.436658
vt 0.283138 0.436658
vt 0.449870 0.496124
vt 0.283138 0.496125
vn 0.6467 -0.5079 0.5691
vn 0.4793 -0.4375 -0.7608
vn 0.5335 -0.5006 0.6817
vn 0.4132 -0.3351 -0.8467
vn -0.5123 0.5536 -0.6566
vn -0.6643 0.5087 -0.5477
vn -0.4679 0.4952 0.7320
vn -0.4451 0.3585 0.8206
vn 0.1864 0.8385 -0.5120
vn 0.7872 -0.2295 0.5723
vn 0.8050 -0.1349 -0.5777
vn 0.7217 -0.3990 0.5656
vn 0.4587 -0.2734 -0.8455
vn 0.7036 -0.4454 0.5536
vn -0.4349 0.3480 0.8305
vn -0.4387 0.3419 0.8310
vn 0.4609 -0.3083 -0.8321
vn 0.7083 -0.4388 0.5529
vn -0.6759 0.4845 -0.5553
vn 0.1465 -0.7338 -0.6633
vn 0.7626 -0.3434 0.5482
vn 0.3923 -0.7949 0.4627
vn -0.7501 0.3793 -0.5417
vn 0.4892 -0.2383 -0.8389
vn 0.7541 -0.3497 0.5559
vn 0.3918 -0.5377 -0.7465
vn 0.4216 -0.6006 0.6793
vn 0.4106 -0.4912 -0.7682
vn -0.4285 0.5411 0.7236
vn 0.3638 -0.6551 0.6622
vn -0.3587 0.6583 -0.6618
vn -0.4283 0.6244 -0.6531
vn -0.3868 0.5406 0.7471
vn 0.3641 -0.6547 0.6623
vn 0.3920 -0.5373 -0.7467
vn -0.3585 0.6582 -0.6619
vn 0.1831 0.7482 0.6377
vn 0.4940 -0.5592 0.6658
vn 0.4556 -0.4855 -0.7461
vn -0.4414 0.4985 0.7461
vn -0.4782 0.5726 -0.6658
vn -0.4794 0.5717 -0.6657
vn 0.4937 -0.5598 0.6655
vn 0.4552 -0.4866 -0.7457
vn -0.4727 0.2831 0.8345
vn -0.4870 0.2654 0.8321
vn 0.4877 -0.2534 -0.8354
vn 0.7548 -0.3595 0.5487
vn -0.7181 0.4398 -0.5393
vn -0.6806 0.4779 -0.5553
vn -0.4700 0.3224 0.8217
vn -0.8673 -0.2303 -0.4413
vn -0.6449 -0.3223 0.6929
vn -0.7360 0.3943 -0.5503
vn -0.4726 0.2832 0.8345
vn -0.5913 0.8053 -0.0421
vn -0.5279 0.8486 -0.0335
vn -0.8732 0.4799 -0.0848
vn -0.8513 0.5183 -0.0811
vn -0.7462 0.6625 -0.0645
usemtl Material
s 1
f 66/66/61 70/67/62 71/68/63
f 67/69/64 73/70/65 70/67/62
f 68/71/66 72/72/67 73/70/65
f 69/73/68 71/68/63 72/72/67
f 79/74/69 77/75/70 105/76/71
f 83/77/72 84/78/73 91/79/74
f 91/79/74 90/80/75 87/81/76
f 88/82/77 92/83/78 91/79/74
f 88/82/77 66/66/61 92/83/78
f 89/84/79 67/69/64 88/82/77
f 89/84/79 69/73/68 68/71/66
f 92/83/78 69/73/68 90/80/75
f 74/85/80 96/86/81 93/87/82
f 94/88/83 97/89/84 74/85/80
f 96/86/81 97/89/84 117/90/85
f 98/91/86 81/92/87 80/93/88
f 99/94/89 81/92/87 100/95/90
f 102/96/91 80/93/88 82/97/92
f 104/98/93 102/96/91 99/94/89
f 103/99/94 104/98/93 100/95/90
f 101/100/95 103/99/94 98/91/86
f 106/101/96 101/100/95 102/96/91
f 104/98/93 103/99/94 77/75/70
f 78/102/97 106/101/96 104/98/93
f 105/76/71 77/75/70 101/100/95
f 79/74/69 105/76/71 106/101/96
f 109/103/98 70/67/62 107/104/99
f 110/105/100 71/68/63 109/103/98
f 110/105/100 73/70/65 72/72/67
f 108/106/101 70/67/62 73/70/65
f 107/104/99 108/106/101 113/107/102
f 112/108/103 110/105/100 109/103/98
f 113/107/102 110/105/100 99/94/89
f 112/108/103 107/104/99 111/109/104
f 81/92/87 111/109/104 80/93/88
f 81/92/87 99/94/89 112/108/103
f 80/93/88 113/107/102 82/97/92
f 117/90/85 116/110/105 95/111/106
f 114/112/107 118/113/108 117/90/85
f 119/114/109 84/78/73 114/112/107
f 66/66/61 67/69/64 70/67/62
f 67/69/64 68/71/66 73/70/65
f 68/71/66 69/73/68 72/72/67
f 69/73/68 66/66/61 71/68/63
f 86/115/110 119/114/109 85/116/111 87/81/76
f 79/74/69 78/102/97 77/75/70
f 84/78/73 119/114/109 86/115/110
f 87/81/76 85/116/111 83/77/72 91/79/74
f 88/82/77 84/78/73 86/115/110 89/84/79
f 91/79/74 84/78/73 88/82/77
f 89/84/79 86/115/110 87/81/76 90/80/75
f 95/111/106 94/88/83 75/117/112 76/118/113
f 91/79/74 92/83/78 90/80/75
f 88/82/77 67/69/64 66/66/61
f 89/84/79 68/71/66 67/69/64
f 89/84/79 90/80/75 69/73/68
f 92/83/78 66/66/61 69/73/68
f 75/117/112 94/88/83 74/85/80
f 96/86/81 95/111/106 76/118/113 93/87/82
f 115/119/114 114/112/107 97/89/84 94/88/83
f 74/85/80 97/89/84 96/86/81
f 95/111/106 96/86/81 117/90/85
f 98/91/86 100/95/90 81/92/87
f 102/96/91 82/97/92 99/94/89
f 102/96/91 98/91/86 80/93/88
f 100/95/90 104/98/93 99/94/89
f 103/99/94 100/95/90 98/91/86
f 102/96/91 101/100/95 98/91/86
f 106/101/96 102/96/91 104/98/93
f 77/75/70 103/99/94 101/100/95
f 78/102/97 104/98/93 77/75/70
f 105/76/71 101/100/95 106/101/96
f 78/102/97 79/74/69 106/101/96
f 109/103/98 71/68/63 70/67/62
f 110/105/100 72/72/67 71/68/63
f 110/105/100 108/106/101 73/70/65
f 108/106/101 107/104/99 70/67/62
f 110/105/100 113/107/102 108/106/101
f 112/108/103 109/103/98 107/104/99
f 99/94/89 110/105/100 112/108/103
f 111/109/104 107/104/99 113/107/102
f 81/92/87 112/108/103 111/109/104
f 74/85/80 93/87/82 76/118/113 75/117/112
f 99/94/89 82/97/92 113/107/102
f 80/93/88 111/109/104 113/107/102
f 97/89/84 114/112/107 117/90/85
f 116/110/105 115/119/114 94/88/83 95/111/106
f 119/114/109 115/119/114 116/110/105 120/120/115
f 114/112/107 115/119/114 119/114/109
f 120/120/115 116/110/105 117/90/85 118/113/108
f 83/77/72 118/113/108 114/112/107 84/78/73
f 83/77/72 85/116/111 120/120/115 118/113/108
f 119/114/109 120/120/115 85/116/111
usemtl Material.001
f 125/121/116 130/122/116 124/123/117 123/124/117
f 121/125/118 122/126/118 128/127/119 127/128/119
f 127/128/119 128/127/119 129/129/120 126/130/120
f 126/130/120 129/129/120 130/122/116 125/121/116
o Cube.002_Cube.006
v -0.267371 0.421745 0.053558
v -0.265420 0.422633 0.057428
v -0.263093 0.425826 0.055534
v -0.265046 0.424940 0.051665
v -0.269145 0.424757 0.058153
v -0.270578 0.424138 0.054022
v -0.268961 0.428064 0.052871
v -0.267528 0.428683 0.057002
v -0.015043 -0.009766 0.011459
v -0.002823 -0.003712 0.004814
v -0.009442 -0.005354 -0.009177
v -0.527405 0.513149 0.118725
v -0.527120 0.514851 0.118332
v -0.526657 0.515161 0.120012
v -0.400040 0.485282 0.091060
v -0.400771 0.484875 0.088740
v -0.399436 0.487599 0.090466
v -0.157444 0.304796 0.024414
v -0.153456 0.306235 0.032377
v -0.151822 0.310327 0.020526
v -0.158604 0.324199 0.030900
v -0.162347 0.322733 0.023324
v -0.263249 0.420679 0.056956
v -0.260839 0.423975 0.054999
v -0.262857 0.423062 0.050997
v -0.167876 0.317690 0.027096
v -0.265266 0.419763 0.052955
v -0.021661 -0.011416 -0.002531
v -0.074629 0.187240 0.014698
v -0.080230 0.185587 0.003266
v -0.084380 0.167579 0.008026
v -0.083829 0.181166 0.020263
v -0.403580 0.486070 0.091863
v -0.400164 0.487193 0.088146
v -0.404470 0.485699 0.089599
v -0.467222 0.500116 0.106531
v -0.403623 0.488518 0.091422
v -0.460273 0.498062 0.102754
v -0.474511 0.503318 0.105762
v -0.526941 0.513458 0.120405
v -0.487918 0.506719 0.110973
v -0.274308 0.427489 0.059361
v -0.272735 0.431323 0.058237
v -0.275709 0.426882 0.055330
v -0.274134 0.430716 0.054205
v -0.397751 0.484321 0.090455
v -0.398371 0.483852 0.088067
v -0.396644 0.486478 0.089722
v -0.148210 0.298143 0.031435
v -0.081067 0.199956 0.015887
v -0.088398 0.202056 0.005253
v -0.089390 0.179418 0.008826
v -0.152175 0.296455 0.023202
v -0.147832 0.311765 0.028489
v -0.146005 0.301615 0.019125
v -0.048307 0.191099 0.206753
v -0.104081 0.158526 -0.132775
v -0.525167 0.533619 0.255939
v -0.590511 0.498071 -0.081949
v -0.373012 0.501738 0.230382
v -0.239596 0.441234 0.212457
v -0.133096 0.332575 0.205750
v -0.191178 0.297505 -0.132989
v -0.298243 0.405388 -0.126051
v -0.436902 0.467256 -0.107891
vt 0.000000 0.000000
vt 0.000000 0.000000
vt 0.000000 0.000000
vt 0.000000 0.000000
vt 0.000000 0.000000
vt 0.000000 0.000000
vt 0.000000 0.000000
vt 0.000000 0.000000
vt 0.000000 0.000000
vt 0.000000 0.000000
vt 0.000000 0.000000
vt 0.000000 0.000000
vt 0.000000 0.000000
vt 0.000000 0.000000
vt 0.000000 0.000000
vt 0.000000 0.000000
vt 0.000000 0.000000
vt 0.000000 0.000000
vt 0.000000 0.000000
vt 0.000000 0.000000
vt 0.000000 0.000000
vt 0.000000 0.000000
vt 0.000000 0.000000
vt 0.000000 0.000000
vt 0.000000 0.000000
vt 0.000000 0.000000
vt 0.000000 0.000000
vt 0.000000 0.000000
vt 0.000000 0.000000
vt 0.000000 0.000000
vt 0.000000 0.000000
vt 0.000000 0.000000
vt 0.000000 0.000000
vt 0.000000 0.000000
vt 0.000000 0.000000
vt 0.000000 0.000000
vt 0.000000 0.000000
vt 0.000000 0.000000
vt 0.000000 0.000000
vt 0.000000 0.000000
vt 0.000000 0.000000
vt 0.000000 0.000000
vt 0.000000 0.000000
vt 0.000000 0.000000
vt 0.000000 0.000000
vt 0.000000 0.000000
vt 0.000000 0.000000
vt 0.000000 0.000000
vt 0.000000 0.000000
vt 0.000000 0.000000
vt 0.000000 0.000000
vt 0.000000 0.000000
vt 0.000000 0.000000
vt 0.000000 0.000000
vt 0.000000 0.000000
vt 0.283138 0.555591
vt 0.449870 0.555591
vt 0.449870 0.615058
vt 0.283138 0.615058
vt 0.283138 0.377191
vt 0.449870 0.377191
vt 0.449870 0.436658
vt 0.283138 0.436658
vt 0.449870 0.496124
vt 0.283138 0.496125
vn -0.6260 -0.7043 -0.3346
vn -0.1003 -0.4749 0.8743
vn -0.5596 -0.6798 -0.4740
vn -0.0398 -0.3588 0.9325
vn 0.5188 0.7212 0.4589
vn 0.6327 0.7072 0.3155
vn 0.0798 0.5294 -0.8446
vn 0.0712 0.3941 -0.9163
vn -0.3070 0.7774 0.5490
vn -0.7945 -0.5337 -0.2897
vn -0.4921 -0.3317 0.8048
vn -0.7956 -0.5142 -0.3201
vn -0.1612 -0.2632 0.9512
vn -0.7250 -0.5709 -0.3853
vn 0.0830 0.3791 -0.9216
vn 0.1324 0.3534 -0.9260
vn -0.1062 -0.3271 0.9390
vn -0.7114 -0.6288 -0.3139
vn 0.6734 0.6671 0.3186
vn -0.0172 -0.6818 0.7313
vn -0.8921 -0.3103 -0.3284
vn -0.5165 -0.8045 -0.2931
vn 0.8793 0.3711 0.2985
vn -0.2311 -0.1842 0.9553
vn -0.8669 -0.3804 -0.3219
vn 0.0663 -0.5558 0.8287
vn -0.3781 -0.7735 -0.5087
vn 0.0445 -0.5167 0.8550
vn -0.0252 0.5759 -0.8171
vn -0.3000 -0.8016 -0.5170
vn 0.2924 0.8067 0.5135
vn 0.3652 0.7929 0.4877
vn -0.0780 0.5527 -0.8297
vn -0.3001 -0.8009 -0.5181
vn 0.0651 -0.5618 0.8246
vn 0.2954 0.8047 0.5149
vn -0.6092 0.5755 -0.5455
vn -0.4887 -0.7258 -0.4841
vn -0.0468 -0.5149 0.8560
vn 0.0356 0.5366 -0.8431
vn 0.4709 0.7446 0.4731
vn 0.4512 0.7670 0.4562
vn -0.4625 -0.7447 -0.4812
vn -0.0109 -0.5251 0.8510
vn 0.2434 0.2543 -0.9360
vn 0.2687 0.1977 -0.9427
vn -0.1934 -0.2200 0.9561
vn -0.8390 -0.4478 -0.3090
vn 0.7874 0.5431 0.2914
vn 0.7217 0.6156 0.3164
vn 0.1779 0.3131 -0.9329
vn 0.9391 -0.2569 0.2280
vn 0.4270 -0.3864 -0.8175
vn 0.8450 0.4310 0.3165
vn 0.2294 0.2692 -0.9354
vn 0.2838 0.9470 -0.1505
vn 0.2832 0.9472 -0.1504
vn 0.1772 0.9749 -0.1348
vn 0.8372 0.5123 -0.1916
vn 0.7700 0.6081 -0.1932
vn 0.7703 0.6077 -0.1932
vn 0.5493 0.8156 -0.1814
vn 0.5488 0.8160 -0.1814
usemtl Material
s 1
f 131/131/121 135/132/122 136/133/123
f 132/134/124 138/135/125 135/132/122
f 133/136/126 137/137/127 138/135/125
f 134/138/128 136/133/123 137/137/127
f 144/139/129 142/140/130 170/141/131
f 148/142/132 149/143/133 156/144/134
f 156/144/134 155/145/135 152/146/136
f 153/147/137 157/148/138 156/144/134
f 153/147/137 131/131/121 157/148/138
f 154/149/139 132/134/124 153/147/137
f 154/149/139 134/138/128 133/136/126
f 157/148/138 134/138/128 155/145/135
f 139/150/140 161/151/141 158/152/142
f 159/153/143 162/154/144 139/150/140
f 161/151/141 162/154/144 182/155/145
f 163/156/146 146/157/147 145/158/148
f 164/159/149 146/157/147 165/160/150
f 167/161/151 145/158/148 147/162/152
f 169/163/153 167/161/151 164/159/149
f 168/164/154 169/163/153 165/160/150
f 166/165/155 168/164/154 163/156/146
f 171/166/156 166/165/155 167/161/151
f 169/163/153 168/164/154 142/140/130
f 143/167/157 171/166/156 169/163/153
f 170/141/131 142/140/130 166/165/155
f 144/139/129 170/141/131 171/166/156
f 174/168/158 135/132/122 172/169/159
f 175/170/160 136/133/123 174/168/158
f 175/170/160 138/135/125 137/137/127
f 173/171/161 135/132/122 138/135/125
f 172/169/159 173/171/161 178/172/162
f 177/173/163 175/170/160 174/168/158
f 178/172/162 175/170/160 164/159/149
f 177/173/163 172/169/159 176/174/164
f 146/157/147 176/174/164 145/158/148
f 146/157/147 164/159/149 177/173/163
f 145/158/148 178/172/162 147/162/152
f 182/155/145 181/175/165 160/176/166
f 179/177/167 183/178/168 182/155/145
f 184/179/169 149/143/133 179/177/167
f 131/131/121 132/134/124 135/132/122
f 132/134/124 133/136/126 138/135/125
f 133/136/126 134/138/128 137/137/127
f 134/138/128 131/131/121 136/133/123
f 151/180/170 184/179/169 150/181/171 152/146/136
f 144/139/129 143/167/157 142/140/130
f 149/143/133 184/179/169 151/180/170
f 152/146/136 150/181/171 148/142/132 156/144/134
f 153/147/137 149/143/133 151/180/170 154/149/139
f 156/144/134 149/143/133 153/147/137
f 154/149/139 151/180/170 152/146/136 155/145/135
f 160/176/166 159/153/143 140/182/172 141/183/173
f 156/144/134 157/148/138 155/145/135
f 153/147/137 132/134/124 131/131/121
f 154/149/139 133/136/126 132/134/124
f 154/149/139 155/145/135 134/138/128
f 157/148/138 131/131/121 134/138/128
f 140/182/172 159/153/143 139/150/140
f 161/151/141 160/176/166 141/183/173 158/152/142
f 180/184/174 179/177/167 162/154/144 159/153/143
f 139/150/140 162/154/144 161/151/141
f 160/176/166 161/151/141 182/155/145
f 163/156/146 165/160/150 146/157/147
f 167/161/151 147/162/152 164/159/149
f 167/161/151 163/156/146 145/158/148
f 165/160/150 169/163/153 164/159/149
f 168/164/154 165/160/150 163/156/146
f 167/161/151 166/165/155 163/156/146
f 171/166/156 167/161/151 169/163/153
f 142/140/130 168/164/154 166/165/155
f 143/167/157 169/163/153 142/140/130
f 170/141/131 166/165/155 171/166/156
f 143/167/157 144/139/129 171/166/156
f 174/168/158 136/133/123 135/132/122
f 175/170/160 137/137/127 136/133/123
f 175/170/160 173/171/161 138/135/125
f 173/171/161 172/169/159 135/132/122
f 175/170/160 178/172/162 173/171/161
f 177/173/163 174/168/158 172/169/159
f 164/159/149 175/170/160 177/173/163
f 176/174/164 172/169/159 178/172/162
f 146/157/147 177/173/163 176/174/164
f 139/150/140 158/152/142 141/183/173 140/182/172
f 164/159/149 147/162/152 178/172/162
f 145/158/148 176/174/164 178/172/162
f 162/154/144 179/177/167 182/155/145
f 181/175/165 180/184/174 159/153/143 160/176/166
f 184/179/169 180/184/174 181/175/165 185/185/175
f 179/177/167 180/184/174 184/179/169
f 185/185/175 181/175/165 182/155/145 183/178/168
f 148/142/132 183/178/168 179/177/167 149/143/133
f 148/142/132 150/181/171 185/185/175 183/178/168
f 184/179/169 185/185/175 150/181/171
usemtl Material.001
f 190/186/176 195/187/177 189/188/178 188/189/178
f 186/190/179 187/191/179 193/192/180 192/193/181
f 192/193/181 193/192/180 194/194/182 191/195/183
f 191/195/183 194/194/182 195/187/177 190/186/176
